<svg xmlns="http://www.w3.org/2000/svg" width="1024" height="1024" viewBox="0 0 1024 1024" version="1.1">
	<path d="M 406.131 1.541 C 376.339 8.005, 356.247 35.505, 358.288 67.022 C 358.973 77.590, 360.797 84.798, 366.556 99.700 C 371.529 112.566, 399.740 179.517, 403.687 187.821 C 407.733 196.331, 413.555 197.284, 418.517 190.247 C 421.845 185.528, 446.493 145.173, 457.693 126.107 C 469.565 105.895, 479.722 85.281, 481.478 77.831 C 483.408 69.645, 483.411 55.037, 481.485 47.460 C 477.187 30.551, 464.062 14.118, 449 6.785 C 435.994 0.453, 420.102 -1.491, 406.131 1.541 M 588 2.515 C 567.493 8.090, 551.109 22.924, 544.255 42.119 C 540.776 51.865, 539.969 68.256, 542.489 78 C 545.751 90.615, 557.812 112.942, 588.403 163 C 605.589 191.121, 607.879 194.313, 611.683 195.443 C 616.526 196.883, 619.195 192.350, 632.547 160 C 655.219 105.066, 664.646 77.735, 665.646 64.034 C 667.517 38.387, 650.485 12.755, 625.723 3.953 C 617.535 1.043, 596.381 0.236, 588 2.515 M 244.512 67.614 C 224.732 72.396, 206.265 89.318, 199.324 109.023 C 195.508 119.854, 194.947 134.603, 197.936 145.500 C 202.147 160.849, 211.222 173.269, 224.615 182.011 C 234.789 188.653, 257.788 195.949, 306.677 208.044 C 353.765 219.693, 354.960 219.911, 358.592 217.531 C 360.922 216.005, 361.178 215.303, 360.744 211.649 C 360.305 207.961, 351.204 185.433, 332.807 142.500 C 324.147 122.290, 313.388 100.748, 307.727 92.283 C 294.147 71.980, 268.254 61.875, 244.512 67.614 M 753.675 67.562 C 736.171 71.484, 721.458 82.057, 710.471 98.610 C 705.371 106.293, 699.052 120.668, 680.017 167.894 C 663.835 208.043, 661.905 214.307, 664.820 217.218 C 667.405 219.799, 677.152 218.117, 717 208.210 C 762.108 196.996, 788.441 188.906, 797.500 183.480 C 809.735 176.151, 819.663 164.034, 824.732 150.242 C 828.095 141.092, 828.957 125.274, 826.599 116 C 818.039 82.332, 785.176 60.504, 753.675 67.562 M 506.500 170.857 C 501.331 174.045, 475.571 203.234, 462.840 220.331 C 448.850 239.117, 450.125 257.534, 466.475 272.827 C 477.888 283.504, 493.262 289, 511.713 289 C 537.717 289, 557.674 278.555, 566.747 260.197 C 570.151 253.310, 570.500 251.850, 570.500 244.500 C 570.500 237.125, 570.163 235.726, 566.748 228.948 C 560.578 216.698, 526.012 174.868, 518.657 170.750 C 514.627 168.494, 510.270 168.532, 506.500 170.857 M 885.126 196.114 C 865.582 199.046, 847.550 212.091, 838.616 229.760 C 833.578 239.724, 825.941 265.318, 815.909 305.856 C 810.378 328.210, 805.599 348.623, 805.290 351.219 C 804.555 357.396, 806.707 361, 811.129 361 C 812.825 361, 822.602 357.447, 832.856 353.103 C 843.110 348.760, 856.609 343.109, 862.853 340.544 C 882.926 332.300, 901.127 324.031, 916.500 316.170 C 929.772 309.383, 932.436 307.579, 939.627 300.500 C 958.876 281.551, 963.263 255.527, 951.319 231.129 C 945.870 219.998, 933.229 207.591, 921.820 202.176 C 909.150 196.164, 897.562 194.249, 885.126 196.114 M 120 196.687 C 96.560 200.570, 74.500 220.718, 68.585 243.644 C 66.560 251.496, 66.553 265.484, 68.570 273.270 C 73.811 293.497, 87.579 308.852, 110.500 320.033 C 125.798 327.496, 205.178 359.516, 210.689 360.448 C 214.146 361.031, 215.201 360.799, 216.925 359.075 C 218.066 357.934, 219 355.805, 219 354.344 C 219 351.182, 206.779 299.389, 200.515 276 C 194.726 254.387, 188.595 235.956, 184.715 228.500 C 180.077 219.588, 167.297 207.240, 157.947 202.639 C 146.741 197.124, 131.648 194.757, 120 196.687 M 274.094 266.306 C 272.220 266.963, 269.745 268.775, 268.594 270.333 C 266.660 272.949, 266.520 274.284, 266.765 287.833 C 267.312 318.151, 270.600 346.164, 274.605 354.630 C 288.824 384.686, 332.504 381.798, 359.746 349 C 365.798 341.714, 372.158 329.277, 374.051 321.027 C 379.025 299.345, 369.947 280.047, 351.333 272.735 C 345.879 270.593, 321.384 267.419, 299.517 266.022 C 280.070 264.779, 278.401 264.797, 274.094 266.306 M 709.500 268.154 C 676.295 270.795, 667.337 273.474, 658.166 283.509 C 651.190 291.141, 648.691 297.974, 648.658 309.500 C 648.611 326.142, 656.762 343.111, 671.243 356.519 C 699.659 382.827, 736.270 381.852, 749.160 354.442 C 755.090 341.833, 760.513 282.950, 756.606 273.599 C 754.065 267.518, 752.320 266.984, 735.527 267.140 C 727.262 267.217, 715.550 267.673, 709.500 268.154 M 950.576 358.094 C 941.299 359.347, 930.047 363.318, 902 375.238 C 889.075 380.731, 868.375 389.440, 856 394.592 C 827.227 406.570, 824.355 409.259, 832.338 416.742 C 834.077 418.373, 849.225 428.021, 866 438.182 C 937.249 481.340, 950.685 486.699, 974.303 481.379 C 998.240 475.986, 1017.580 456.976, 1021.994 434.500 C 1022.642 431.200, 1023.584 427.719, 1024.086 426.764 C 1025.364 424.336, 1025.280 410.019, 1024 412 C 1023.263 413.141, 1023.027 412.734, 1023.015 410.302 C 1023.007 408.543, 1021.880 403.557, 1020.511 399.223 C 1011.597 371.007, 982.349 353.806, 950.576 358.094 M 46.566 359.535 C 43.303 360.361, 37.289 362.645, 33.203 364.611 C 19.393 371.253, 6.329 386.961, 2.551 401.465 C 0.485 409.396, 0.473 429.555, 2.528 437.448 C 7.923 458.159, 26.212 476.084, 47.460 481.485 C 55.190 483.450, 69.568 483.421, 77.356 481.425 C 89.633 478.279, 111.713 466.536, 154 440.664 C 167.475 432.419, 180.750 424.357, 183.500 422.746 C 190.803 418.471, 195 414.130, 195 410.855 C 195 408.914, 194.041 407.385, 191.750 405.672 C 188.511 403.251, 133.128 380.095, 110.441 371.676 C 83.293 361.602, 73.202 358.809, 62.500 358.408 C 55.761 358.155, 50.565 358.523, 46.566 359.535 M 233.801 454.870 C 227.676 456.892, 220.098 461.955, 204.931 474.154 C 194.107 482.859, 173.076 501.513, 171.378 503.914 C 169.466 506.617, 168.793 511.842, 169.919 515.247 C 172.025 521.616, 216.337 560.083, 228.903 566.451 C 253.110 578.717, 279.881 562.818, 288.087 531.300 C 289.558 525.649, 290.118 520.331, 290.118 512 C 290.118 486.253, 279.420 465.747, 261.345 456.849 C 253.006 452.744, 242.522 451.991, 233.801 454.870 M 768.500 454.402 C 757.013 458.045, 746.699 467.075, 741.149 478.350 C 730.984 498.997, 731.141 526.156, 741.540 545.944 C 746.238 554.885, 754.489 563.131, 762.861 567.252 C 768.837 570.194, 770.307 570.499, 778.479 570.484 C 786.068 570.471, 788.373 570.059, 793 567.888 C 802.720 563.327, 830.595 541.241, 847.164 524.972 C 854.946 517.331, 856.525 512.988, 853.538 507.441 C 850.825 502.404, 821.158 475.869, 803.694 462.860 C 791.807 454.005, 779.260 450.990, 768.500 454.402 M 51.042 541.472 C 38.902 543.763, 28.004 549.770, 18.364 559.485 C 8.750 569.172, 4.060 577.893, 1.433 590.966 C -6.257 629.227, 19.648 662.910, 58.861 665.639 C 76.251 666.849, 87.306 663.342, 149 637.047 C 167.975 628.959, 184.874 621.797, 186.553 621.131 C 191.409 619.206, 195 615.313, 195 611.975 C 195 607.962, 191.431 605.364, 158 585.046 C 113.248 557.848, 90.222 545.516, 78.673 542.561 C 69.817 540.294, 59.449 539.886, 51.042 541.472 M 952.973 541.020 C 937.710 543.373, 919.875 552.671, 855.500 591.838 C 844.500 598.531, 834.038 605.418, 832.250 607.144 C 828.330 610.928, 828.085 614.248, 831.493 617.406 C 835.587 621.200, 908.443 650.841, 934.500 659.313 C 958.118 666.992, 967.413 667.582, 982.975 662.386 C 1003.001 655.700, 1018.286 638.588, 1022.620 618 C 1025.892 602.455, 1022.639 583.398, 1014.398 569.832 C 1009.752 562.185, 997.717 551.120, 989.812 547.228 C 978.539 541.678, 964.286 539.277, 952.973 541.020 M 301 649.046 C 289.601 651.404, 279.675 658.842, 274.978 668.546 C 270.861 677.050, 267.298 703.377, 266.390 732 C 265.818 750.008, 266.147 751.566, 271.332 755.404 C 273.928 757.325, 275.302 757.479, 287.832 757.251 C 317.242 756.716, 345.087 753.480, 353.522 749.618 C 359.540 746.863, 366.280 741.102, 369.557 735.909 C 374.875 727.485, 376.493 713.269, 373.478 701.460 C 367.806 679.242, 346.533 657.281, 324.284 650.676 C 317.423 648.640, 306.619 647.883, 301 649.046 M 701.656 649.518 C 690.423 652.359, 680.389 658.521, 670 668.958 C 654.512 684.520, 648.573 697.131, 648.556 714.500 C 648.547 723.652, 648.815 725.070, 651.709 731.225 C 655.503 739.292, 661.957 745.888, 669.589 749.499 C 678.283 753.612, 711.441 757.824, 737.795 758.165 C 748.690 758.305, 750.398 758.095, 752.795 756.315 C 754.283 755.211, 756.056 753.226, 756.735 751.904 C 760.165 745.230, 755.745 684.410, 750.886 671.425 C 748.070 663.899, 740.455 655.842, 732.417 651.885 C 726.884 649.161, 724.705 648.674, 716.745 648.381 C 710.809 648.162, 705.408 648.570, 701.656 649.518 M 187.500 672.082 C 175.950 676.990, 158.850 684.225, 149.500 688.159 C 126.032 698.032, 101.768 709.930, 92.616 716.051 C 59.995 737.869, 57.181 784.526, 86.882 811.102 C 99.417 822.319, 110.755 827.025, 127.012 827.761 C 144.590 828.557, 159.268 823.275, 171.714 811.673 C 183.415 800.765, 187.794 792.074, 196.553 762.375 C 201.902 744.237, 219 673.937, 219 670.083 C 219 668.632, 218.299 666.445, 217.443 665.223 C 214.762 661.394, 210.175 662.445, 187.500 672.082 M 806.468 666.409 C 804.106 670.013, 804.308 671.133, 815.409 716.053 C 825.711 757.741, 833.371 783.829, 838.124 793.410 C 857.258 831.986, 907.780 840.372, 938 809.989 C 949.491 798.437, 954.941 787.759, 957.036 772.698 C 960.068 750.900, 949.138 727.476, 929.345 713.352 C 925.945 710.926, 917.614 706.304, 910.831 703.082 C 890.748 693.541, 818.095 664.716, 812.863 664.213 C 808.684 663.811, 808.021 664.039, 806.468 666.409 M 502.340 735.034 C 487.402 736.589, 474.165 742.902, 464.616 753.024 C 456.317 761.821, 453.606 768.333, 453.560 779.579 C 453.530 786.938, 453.858 788.319, 457.244 795.079 C 461.344 803.264, 474.897 820.626, 491.914 839.492 C 505.634 854.704, 510.765 857.507, 517.085 853.243 C 520.681 850.818, 536.414 833.871, 547.891 820.061 C 567.368 796.625, 570.519 790.823, 570.465 778.500 C 570.419 768.114, 567.412 761.338, 558.921 752.496 C 546.193 739.242, 524.938 732.682, 502.340 735.034 M 340 807.584 C 334.775 808.900, 317.675 813.103, 302 816.925 C 266.563 825.566, 242.063 832.905, 231 838.194 C 219.523 843.681, 207.938 855.127, 202.575 866.277 C 195.922 880.110, 194.387 894.308, 198.002 908.590 C 200.840 919.803, 205.384 928.138, 213.252 936.563 C 245.649 971.253, 296.241 961.418, 319.025 916 C 326.435 901.228, 359.684 818.830, 360.635 812.879 C 361.098 809.988, 360.778 808.778, 359.110 807.110 C 356.389 804.389, 352.284 804.491, 340 807.584 M 664.655 806.829 C 663.745 807.835, 663 809.899, 663 811.415 C 663 813.961, 672.013 836.275, 690.702 880 C 694.815 889.625, 702.064 905.097, 706.808 914.382 C 713.876 928.212, 716.638 932.550, 722.091 938.382 C 734.427 951.577, 748.002 957.459, 766 957.407 C 774.811 957.382, 777.781 956.934, 784.462 954.624 C 803.343 948.097, 819.541 931.795, 825.285 913.542 C 828.510 903.291, 828.470 884.305, 825.203 874.853 C 820.585 861.492, 811.280 849.476, 799.702 841.922 C 792.623 837.303, 782.640 833.424, 762.693 827.541 C 741.277 821.226, 674.616 805, 670.084 805 C 667.698 805, 665.701 805.672, 664.655 806.829 M 408.209 829.566 C 405.155 831.705, 404.164 833.832, 388.680 871.500 C 373.788 907.724, 366.841 926.152, 361.853 942.659 C 355.787 962.734, 357.886 980.977, 368.057 996.588 C 376.547 1009.618, 390.842 1019.426, 406 1022.622 C 414.906 1024.499, 429.537 1023.960, 438 1021.443 C 459.060 1015.179, 476.817 996.847, 481.537 976.496 C 483.514 967.974, 483.513 954.324, 481.536 946.500 C 479.062 936.710, 464.290 908.269, 445.914 877.921 C 436.449 862.289, 426.517 845.823, 423.841 841.329 C 419.158 833.462, 414.160 828, 411.646 828 C 410.985 828, 409.439 828.705, 408.209 829.566 M 607.586 831.250 C 604.480 834.233, 592.873 852.875, 568.204 894.500 C 554.819 917.085, 544.643 937.333, 542.630 945.386 C 540.483 953.977, 540.416 968.453, 542.487 976.500 C 549.268 1002.862, 572.274 1021.798, 599.698 1023.589 C 642.181 1026.365, 672.855 990.003, 664.568 946.689 C 662.673 936.785, 655.615 918.160, 639.485 880.500 C 632.183 863.450, 624.771 846.017, 623.015 841.761 C 619.697 833.717, 615.363 828, 612.584 828 C 611.697 828, 609.448 829.462, 607.586 831.250" stroke="none" fill="black" fill-rule="evenodd"/>
</svg>