<svg xmlns="http://www.w3.org/2000/svg" preserveAspectRatio="xMidYMid" width="199.157"
									height="115.938" viewBox="0 0 199.157 31.938" class="svg replaced-svg">
									<style>
										path {
											fill: #fff
										}
									</style>
									<path
										d="M191.451 22.453c0 1.282.103 2.36.719 3.079.667.822 2.053 1.283 3.336 1.283.719 0 1.95-.102 2.669-.308l.976 4.415c-.924.309-2.412.514-3.798.514-3.029 0-5.288-1.078-6.827-2.824-1.438-1.591-1.951-3.799-1.951-6.416V11.158h-6.159V6.794h6.159V.12h4.876v6.674h7.7v4.364h-7.7v11.295zm-13.856 1.591c0 4.568-4.26 7.392-8.982 7.392-3.85 0-7.083-1.18-9.752-3.337l2.515-3.594c2.258 1.746 4.722 2.67 7.134 2.67 2.105 0 4.209-1.129 4.209-3.029 0-2.773-4.004-2.926-7.545-4.108-2.925-.974-5.543-2.823-5.543-6.21 0-5.186 4.619-7.547 8.931-7.547 3.542 0 6.108 1.129 8.007 2.669l-2.516 3.491c-1.488-1.129-3.233-1.899-5.184-1.899-2.36 0-4.363 1.129-4.363 3.029 0 1.642 1.9 2.207 4.313 2.823 3.798.975 8.776 2.67 8.776 7.65zm-41.727-4.158a7.775 7.775 0 0 0 7.802 7.289c3.593 0 5.544-1.746 6.93-3.286l3.182 3.03c-1.796 2.31-5.235 4.517-10.163 4.517-7.032 0-12.472-5.339-12.472-12.577 0-7.24 4.927-12.578 11.754-12.578 6.724 0 11.6 5.442 11.6 12.578 0 .205 0 .564-.052 1.027h-18.581zm7.187-9.344a7.013 7.013 0 0 0-6.776 5.236h13.14c-.719-3.08-3.49-5.236-6.364-5.236zm-22.579 7.289c0-2.464-.514-3.799-1.386-4.825a5.92 5.92 0 0 0-4.517-2.104c-3.491 0-5.749 1.796-7.34 3.439.256 1.18.411 2.566.411 4.261v12.32h-4.876V17.831c0-2.464-.513-3.799-1.386-4.825-1.078-1.283-2.824-2.104-4.671-2.104-2.977 0-5.39 1.796-6.776 3.439v16.581H85.06V6.794h4.722v2.31c.975-1.078 3.798-2.823 7.083-2.823 3.541 0 6.518 1.591 8.52 4.004 2.207-2.208 4.825-4.004 9.188-4.004 3.438 0 6.57 1.54 8.571 4.055 1.489 1.848 2.208 4.21 2.208 8.266v12.32h-4.876V17.831zM51.147 31.935a59.388 59.388 0 0 0 11.368-8.963c1.997-2.01 3.997-4.132 5.652-6.285v-.015a1.117 1.117 0 0 0 0-1.414v-.007c-1.655-2.154-3.655-4.275-5.652-6.285A59.388 59.388 0 0 0 51.147.003h11.607c6.009 4.332 11.316 10.15 14.778 15.965-3.462 5.816-8.769 11.632-14.778 15.967H51.147zm-12.385 0c-8.819 0-15.964-7.148-15.964-15.967 0-8.82 7.145-15.965 15.964-15.965 8.817 0 15.966 7.145 15.966 15.965 0 8.819-7.149 15.967-15.966 15.967zm7.287-7.784c.022.042.068.192.076.346.004.087-.013.153.003.214a.328.328 0 0 0 .101.155.378.378 0 0 0 .159.106.822.822 0 0 0 .301.029c.049-.007.096-.037.141-.053.048-.016.116-.01.154-.023.034-.015.039-.05.057-.064a.451.451 0 0 0 .123-.141c.024-.044.029-.114.048-.167.018-.049.062-.073.086-.117.038-.068.018-.166.028-.223.016-.096.075-.227.112-.305.036-.078.081-.173.081-.222 0-.086.108-.397.234-.669.032-.072.082-.254.112-.407.031-.162.086-.304.132-.341.065-.053.07-.089.034-.214-.054-.19-.054-.19.019-.13.088.073.218-.175.153-.294a.6.6 0 0 1-.045-.224c-.001-.048.009-.117-.01-.182-.007-.022-.047-.11-.051-.132-.017-.1-.005-.128-.038-.217a.718.718 0 0 0-.14-.226.024.024 0 0 0-.021-.007c-.031.002-.089.045-.124.106a.395.395 0 0 0-.042.181c0 .151-.034.177-.12.092-.039-.039-.062.016-.079.054-.013.028-.016.029-.034.065-.021.043-.028.088-.041.117-.02.041-.023.101-.076.157-.027.03-.074.051-.097.087-.024.034-.024.082-.037.103-.025.041-.16.138-.372.22a1.12 1.12 0 0 0-.229.109c-.023.02-.074.03-.118.036-.052.007-.077.032-.077.099a.362.362 0 0 1-.086.201c-.093.108-.092.229.006.666.048.216.045.236-.063.399-.062.094-.105.166-.122.194-.012.021-.032.059-.05.075a.48.48 0 0 0-.115.237.506.506 0 0 0 .027.31zm2.364-11.15c-.099-.052-.109-.052-.176.013-.091.089-.409.198-.503.173-.048-.013-.106.022-.15.027-.059.008-.087.007-.146.021-.051.012-.115.035-.195.047-.085.014-.131.027-.236.047-.07.014-.258.077-.33.106-.105.044-.079.039-.164-.007-.057-.03-.104-.068-.104-.085a.505.505 0 0 0-.104-.141c-.057-.062-.086-.122-.064-.137.096-.059.032-.238-.152-.426-.106-.109-.192-.216-.192-.237 0-.022-.024-.039-.053-.039-.03-.001-.092-.058-.139-.129-.047-.069-.101-.127-.12-.127-.02 0-.065-.03-.1-.065-.036-.035-.098-.062-.092-.129.004-.065.007-.128-.067-.128-.021 0-.09.028-.112.001-.063-.078-.104-.025-.131-.15-.106-.479-.136-.493-.343-.685-.222-.206-.297-.412-.271-.741.007-.089-.013-.168-.049-.198a.207.207 0 0 1-.06-.139c0-.051-.086-.171-.197-.275-.17-.16-.194-.204-.173-.312.02-.098-.001-.152-.101-.263-.07-.076-.127-.162-.127-.195 0-.03-.067-.161-.149-.29-.098-.153-.15-.285-.15-.382 0-.081-.014-.149-.033-.149-.06 0-.351-.413-.351-.498a.209.209 0 0 0-.041-.124c-.023-.023-.054-.155-.07-.296-.015-.14-.045-.277-.066-.304-.088-.112-.554-.046-.729.102-.043.037-.104.05-.149.032-.186-.074-.879-.232-.917-.209-.023.014-.069-.015-.104-.065-.047-.067-.109-.089-.243-.089-.199-.001-.256-.03-.297-.14a.123.123 0 0 0-.107-.074.199.199 0 0 1-.124-.047c-.078-.078-.371-.003-.546.142-.154.127-.159.139-.133.334.021.156.011.22-.041.271-.095.094-.224.086-.338-.025-.103-.098-.4-.203-.583-.205-.129 0-.189-.058-.231-.224-.02-.08-.064-.127-.141-.145a.524.524 0 0 1-.188-.092c-.047-.04-.151-.062-.278-.06-.337.008-.439-.135-.528-.265-.012-.016-.048-.025-.117-.011-.086.017-.133.006-.148-.034-.03-.077.104-.195.221-.195.051 0 .092-.019.092-.042 0-.024-.072-.098-.059-.167.02-.098.006-.134-.065-.172-.112-.06-.113-.107-.004-.216.097-.097.102-.124.039-.213-.034-.049-.025-.022-.067-.012-.138.034-.103.051-.143.014-.044-.04-.067-.071-.156-.07a.52.52 0 0 0-.175.032c-.202.068-.223.07-.348.025-.067-.023-.114-.018-.133.013-.022.034-.057.033-.127-.01-.076-.045-.101-.046-.116-.004-.011.031-.052.054-.092.054s-.1.024-.131.053c-.045.044-.06.044-.076 0-.027-.074-.24-.066-.726.028-.476.093-.51.102-.593.165a.428.428 0 0 1-.159.075c-.053.007-.125.042-.258.159a.347.347 0 0 1-.13.081c-.09.009-.217-.013-.25-.044-.018-.018-.124-.017-.235 0-.219.034-.393-.035-.393-.158 0-.044-.032-.061-.095-.053-.069.01-.129.084-.217.269-.138.289-.265.423-.489.517-.163.068-.391.265-.393.34a.957.957 0 0 1-.09.213.548.548 0 0 0-.064.362c.021.169.008.21-.104.341-.245.29-.462.447-.696.506-.166.042-.192.067-.244.224-.033.1-.098.195-.148.218-.096.044-.257.323-.297.512a.639.639 0 0 1-.172.252.67.67 0 0 0-.176.271.649.649 0 0 1-.2.365c-.045.04-.085.151-.1.279-.023.204-.019.217.108.29.126.074.177.158.095.158-.075 0-.095.215-.028.311.089.127.08.4-.022.623a.953.953 0 0 0-.084.296c0 .126-.166.392-.245.393-.084 0-.063.053.059.151.103.081.112.113.106.383-.005.266.004.304.111.416.078.081-.056.151.027.263.043.06.076.069.139.036.088-.044.188-.028.188.032 0 .022.105.146.234.276.138.139.236.276.238.332.004.104-.009.29.075.422.05.077.173.121.243.157.16.083.264.167.682.543.488.439.565.461.922.271.246-.13.262-.134.705-.114.325.015.463.037.489.082.032.049.142.042.248-.022.069-.039.083-.051.127-.068.053-.022.089-.029.112-.04.086-.044.286-.139.351-.174.059-.032.102-.028.154-.061.113-.074.691-.151.842-.112.12.033.293.263.328.438.031.156.201.264.348.222.062-.017.127-.021.145-.024.031-.007.114-.01.211-.032.174-.04.18-.037.358.151.165.175.178.206.16.371a1.586 1.586 0 0 1-.068.305c-.044.114-.056.21-.07.588-.003.088-.025.118-.089.118-.112 0-.108.07.021.324.059.116.091.223.107.251.011.02.065.1.143.171.147.134.279.311.329.392.009.015.195.304.227.336.032.033.073.152.089.265a.835.835 0 0 0 .066.247c.019.023.086.166.149.317.11.262.111.279.038.333-.069.049-.071.072-.022.194.192.477.221.83.08.979-.217.228-.288.351-.288.5 0 .167-.136.503-.185.572-.035.049-.023.608.041.787.036.099.079.181.096.181s.104.159.192.353c.089.194.212.457.275.586.081.166.117.314.126.512.006.154.029.335.053.403a.895.895 0 0 1 .043.232c0 .059.041.261.092.449.068.251.131.385.241.506.09.101.204.311.287.532.076.202.167.402.204.444.1.117.142.382.06.382-.076 0-.089.095-.076.163.004.018-.002.098.022.134.018.028.04.012.063.015.025.003.054.02.05.052-.004.028-.024.049-.031.07-.043.128.008.158.118.158.053 0 .136.035.165.07.03.036.08.085.132.09.058.005.119-.038.156-.076.028-.027.119-.047.204-.044a.51.51 0 0 0 .25-.056c.104-.068.462-.095.616-.045.058.019.347-.05.368-.057l.171-.058c.138-.051.489-.252.707-.467.288-.284.595-.645.655-.773.073-.154.255-.32.319-.376.023-.021.087-.076.121-.154.084-.191.145-.503.13-.645-.019-.175-.012-.189.145-.288.091-.058.179-.099.192-.104.062-.025.156-.04.222-.081.111-.069.184-.172.185-.242.001-.028-.018-.165.018-.248a.48.48 0 0 0 .037-.166c.001-.017-.023-.119-.024-.238-.001-.142-.034-.182-.06-.236-.015-.032-.026-.05-.037-.084-.014-.041-.006-.09-.043-.126-.037-.037-.067-.084-.067-.105 0-.065.37-.439.435-.439.034 0 .104-.075.156-.167.077-.137.164-.204.454-.349.099-.05.207-.082.271-.123.116-.075.159-.155.229-.252.229-.315.26-.419.202-.661-.032-.131-.042-.387-.028-.68.021-.447.018-.476-.074-.56-.081-.076-.249-.496-.236-.628.002-.023.003-.247.049-.326.038-.039.023-.078-.064-.165-.062-.062-.11-.154-.108-.203a.225.225 0 0 0-.004-.051c-.016-.048.046-.106.072-.176.032-.08.033-.169.076-.206.062-.052.235-.461.235-.554 0-.037.034-.08.075-.096.089-.033.437-.39.437-.449 0-.062.426-.586.615-.758a2.51 2.51 0 0 1 .299-.228c.197-.119.741-.783.794-.861.03-.044.058-.127.128-.241.071-.115.128-.236.128-.271 0-.033.048-.151.107-.261.059-.111.363-.729.363-.864 0-.108.013-.108.044-.166.035-.064.082-.099.061-.158-.01-.03-.023-.048-.009-.175.018-.157.007-.203-.056-.236zm-39.055 2.25v.007a1.118 1.118 0 0 0 0 1.414v.015c1.655 2.153 3.656 4.275 5.653 6.285a59.326 59.326 0 0 0 11.368 8.963H14.772C8.763 27.6 3.454 21.784-.006 15.968 3.454 10.153 8.763 4.335 14.772.003h11.607a59.326 59.326 0 0 0-11.368 8.963c-1.997 2.01-3.998 4.131-5.653 6.285z">
									</path>
								</svg>