<svg width="738" height="888" viewBox="0 0 738 888" fill="none" xmlns="http://www.w3.org/2000/svg">
<path fill-rule="evenodd" clip-rule="evenodd" d="M738 0H367.27L265 888H738V0Z" fill="#2026A2"/>
<path fill-rule="evenodd" clip-rule="evenodd" d="M175.929 360.866C184.843 364.643 193.255 365.891 196.91 364.385C206.074 360.609 202.083 325.864 192.808 313.249C183.534 300.634 144.88 300 146.774 327.311C147.432 336.789 152.568 344.609 159.378 350.622L155.729 400.76L186.196 396.478L175.929 360.866Z" fill="#B28B67"/>
<path fill-rule="evenodd" clip-rule="evenodd" d="M184.678 305.213C183.921 304.897 182.338 304.228 181.554 304.015C181.369 303.963 180.021 303.265 179.989 303.28C179.105 303.722 176.58 305.251 176.489 306.277C176.464 306.358 176.439 306.433 176.413 306.5C176.129 307.242 175.879 307.997 175.646 308.759C175.135 310.431 174.735 312.159 174.36 313.871C173.631 317.204 173.067 320.589 172.585 323.971C172.095 327.413 171.755 330.873 171.315 334.322C170.681 339.286 169.665 344.183 169.04 349.143C168.64 352.31 168.614 355.461 169.272 358.57C169.28 358.607 169.286 358.645 169.295 358.682C169.299 358.698 169.303 358.713 169.306 358.729C169.411 359.206 169.532 359.683 169.67 360.158C169.79 360.564 169.91 360.972 170.035 361.379C170.889 358.862 171.429 356.144 172.043 353.551C172.103 353.297 172.158 353.042 172.212 352.786C172.451 352.244 172.697 351.705 172.947 351.167C174.521 347.774 176.105 344.392 177.59 340.955C180.259 334.772 182.879 328.474 186.258 322.667C187.256 320.952 188.285 319.257 189.266 317.531C189.824 316.549 190.362 315.555 190.876 314.548C191.244 313.828 192.922 311.262 192.005 309.991C191.536 309.34 186.639 306.035 184.678 305.213Z" fill="#2C2C2C"/>
<path fill-rule="evenodd" clip-rule="evenodd" d="M181.791 304.098C182.501 304.23 181.973 302.87 181.247 302.468C177.879 300.604 166.12 301.409 156.283 304.926C149.692 307.283 142.289 311.883 137.499 317.133C133.18 321.865 130.731 328.823 129.881 335.332C128.989 342.167 129.678 349.065 131.638 355.669C132.069 357.12 132.745 358.465 133.215 359.878C133.745 361.47 134.12 363.021 134.877 364.535C135.342 365.462 136.032 366.338 136.449 367.277C136.924 368.349 136.875 369.409 136.802 370.577C136.684 372.482 136.473 374.395 136.054 376.256C135.425 379.052 134.558 381.709 134.182 384.571C133.683 388.379 131.114 400.904 134.673 403.719L193.727 395.42C191.673 391.591 186.541 387.466 185.03 383.271C184.14 380.8 183.105 375.275 183.021 375.08C180.407 366.136 177.196 362.14 175.346 360.786C173.496 359.432 171.26 359.25 170.955 357.893C169.696 352.281 171.199 346.522 172.118 340.989C173.212 334.395 173.755 327.719 174.914 321.138C175.427 318.224 178.101 303.415 181.791 304.098Z" fill="#8991DC"/>
<path fill-rule="evenodd" clip-rule="evenodd" d="M162.644 334.251C160.814 324.708 160.765 320.886 162.004 313.54L160.631 313.733C158.852 316.829 158.236 325.622 161.551 334.405L162.644 334.251ZM135.67 337.58C135.348 337.03 135.019 336.468 134.679 335.89L133.865 336.431C138.029 346.072 142.467 353.343 154.883 358.216L155.69 357.466C143.74 351.38 140.608 346.025 135.67 337.58ZM150.987 325.791L150.987 325.791C154.426 338.263 156.607 346.173 167.879 359.488L166.879 359.953C154.87 347.823 151.713 336.988 149.332 323.509L150.296 323.294C150.534 324.147 150.763 324.979 150.987 325.791ZM146.131 365.873L145.39 367.08C149.998 367.384 153.502 370.234 157.52 373.501C161.771 376.957 166.596 380.881 173.911 382.75L175.085 381.795C166.989 378.95 162.932 375.561 159.39 372.602C155.723 369.538 152.607 366.936 146.131 365.873Z" fill="black" fill-opacity="0.2"/>
<path fill-rule="evenodd" clip-rule="evenodd" d="M315.623 596.546C313.238 622.503 315.622 678.298 316.905 694.393C317.712 704.508 331.561 701.86 332.854 693.764C333.073 692.393 333.965 687.575 335.297 680.385C341.826 645.133 358.913 552.871 358.943 530.437C358.957 520.15 335.95 511.924 326.746 524.35C319.178 519.059 308.437 517.64 301.815 528.327C296.802 536.417 284.89 559.384 272.186 586.203C261.057 609.698 243.667 666.732 243.667 666.732L258.43 673.446C258.43 673.446 294.899 615.08 317.861 574.158C317.099 581.2 316.341 588.739 315.623 596.546Z" fill="#B28B67"/>
<path fill-rule="evenodd" clip-rule="evenodd" d="M244.722 645.617L295.394 526.126C307.533 506.688 341.568 530.081 337.428 541.355C328.03 566.951 280.232 649.814 277.432 657.439L244.722 645.617Z" fill="#1F28CF"/>
<path fill-rule="evenodd" clip-rule="evenodd" d="M360.225 539.766C360.225 573.635 345.312 653.249 345.301 660.707L309.174 659.494C309.174 659.494 318.646 555.666 317.163 554.962C314.938 553.907 225.958 567.221 199.271 568.226C160.789 569.676 144.869 546.175 143.577 501.578L218.119 501.578C218.119 501.578 313.729 512.939 343.797 517.381C356.669 519.283 360.225 530.436 360.225 539.766Z" fill="#2B44FF"/>
<path fill-rule="evenodd" clip-rule="evenodd" d="M244.977 662.078C244.06 661.356 242.712 661.51 242.05 662.474C240.522 664.7 238.07 668.503 237.502 670.768C236.664 674.117 236.175 680.821 236.175 680.821C240.078 681.79 306.331 698.233 306.331 698.233C306.331 698.233 311.32 689.912 305.608 687.732C299.896 685.552 296.143 684.007 296.143 684.007L266.93 661.264C266.487 660.919 265.845 661.008 265.51 661.46L261.975 666.232C261.975 666.232 255.886 667.412 252.476 666.566C250.223 666.006 246.944 663.628 244.977 662.078Z" fill="#E4E4E4"/>
<path fill-rule="evenodd" clip-rule="evenodd" d="M317.933 673.643C316.868 673.162 315.599 673.637 315.191 674.731C314.249 677.259 312.794 681.54 312.794 683.874C312.794 687.326 313.949 693.948 313.949 693.948C317.971 693.948 386.253 693.948 386.253 693.948C386.253 693.948 389.071 684.673 382.999 683.934C376.927 683.194 372.91 682.598 372.91 682.598L339.037 667.566C338.523 667.338 337.922 667.578 337.707 668.098L335.437 673.58C335.437 673.58 329.815 676.191 326.301 676.191C323.979 676.191 320.218 674.673 317.933 673.643Z" fill="#E4E4E4"/>
<rect x="314.075" y="693.948" width="67.9429" height="8.93265" rx="4" fill="#2F3676"/>
<path d="M126.912 518.915C126.912 513.392 131.389 508.915 136.912 508.915H279.719C285.241 508.915 289.719 513.392 289.719 518.915V584.204H130.912C128.703 584.204 126.912 582.413 126.912 580.204V518.915Z" fill="#2F3676"/>
<path fill-rule="evenodd" clip-rule="evenodd" d="M276.899 508.915H282.112C287.007 508.915 291.182 512.458 291.979 517.287L320.485 690.12H306.787" fill="#2F3676"/>
<path fill-rule="evenodd" clip-rule="evenodd" d="M314.075 715.642C326.819 715.642 337.15 705.358 337.15 692.672C337.15 679.986 326.819 669.703 314.075 669.703C301.332 669.703 291.001 679.986 291.001 692.672C291.001 705.358 301.332 715.642 314.075 715.642Z" fill="#191847"/>
<path fill-rule="evenodd" clip-rule="evenodd" d="M241.005 616.107C241.005 669.669 197.385 713.09 143.577 713.09C89.7696 713.09 46.1498 669.669 46.1498 616.107C46.1498 562.544 89.7696 519.124 143.577 519.124C197.385 519.124 241.005 562.544 241.005 616.107ZM223.058 616.107C223.058 659.802 187.473 695.224 143.577 695.224C99.6816 695.224 64.097 659.802 64.097 616.107C64.097 572.411 99.6816 536.989 143.577 536.989C187.473 536.989 223.058 572.411 223.058 616.107Z" fill="#191847"/>
<rect x="138.45" y="531.885" width="10.2555" height="168.444" fill="#191847"/>
<rect width="10.2322" height="168.831" rx="2" transform="matrix(0.708721 0.705489 -0.708721 0.705489 199.778 552.943)" fill="#191847"/>
<rect x="228.185" y="611.002" width="10.2087" height="169.216" rx="2" transform="rotate(90 228.185 611.002)" fill="#191847"/>
<rect width="10.2322" height="168.831" rx="2" transform="matrix(-0.708721 0.705489 -0.708721 -0.705489 207.03 672.051)" fill="#191847"/>
<path fill-rule="evenodd" clip-rule="evenodd" d="M311.639 427.725L262.474 441.575L274.608 462.664L313.022 440.898C330.794 440.156 339.212 438.55 338.277 436.081C337.488 433.999 335.534 433.612 333.733 433.255C332.331 432.977 331.022 432.717 330.431 431.69C329.081 429.343 334.054 423.387 339.016 417.937C343.977 412.487 340.086 412.159 337.726 412.561C329.581 415.71 320.885 420.764 311.639 427.725ZM85.018 584.55C87.6823 576.515 106.645 475.252 106.645 475.252L134.457 471.449C134.457 471.449 103.13 580.296 101.85 585.403C100.188 592.036 105.791 600.547 109.59 606.318C110.178 607.21 110.722 608.038 111.19 608.782C107.379 611.165 105.118 609.25 102.735 607.232C100.043 604.952 97.1948 602.54 91.779 606.037C89.6866 607.388 87.741 608.911 85.8402 610.399C79.2743 615.539 73.2426 620.26 63.5399 616.03C62.0017 615.359 59.9897 612.302 63.3792 609.216C71.8236 601.528 83.7155 588.479 85.018 584.55Z" fill="#997659"/>
<path fill-rule="evenodd" clip-rule="evenodd" d="M170.452 376.789L192.42 375.173C204.565 422.694 238.047 449.082 301.967 429.572L319.389 490.518C259.395 506.965 202.389 490.146 182.142 425.762C176.9 409.095 172.159 391.649 170.452 376.789Z" fill="#AFB9C5"/>
<path fill-rule="evenodd" clip-rule="evenodd" d="M87.0714 571.493C90.9344 489.334 114.127 422.931 156.649 372.286L158.738 371.992L158.809 371.982L158.829 372L192.863 374.883C198.404 414.315 211.358 442.539 223.811 469.675C229.189 481.393 234.474 492.908 239.029 505.035L149.968 517.552C150.729 532.072 152.031 546.923 153.757 562.121L87.0714 571.493Z" fill="#C5CFD6"/>
<path fill-rule="evenodd" clip-rule="evenodd" d="M149.968 517.552C148.418 487.99 149.107 459.8 153.008 432.845C155.247 460.77 159.616 495.188 168.069 515.008L149.968 517.552Z" fill="black" fill-opacity="0.1"/>
<path fill-rule="evenodd" clip-rule="evenodd" d="M492.54 260.114C484.909 266.076 477.107 269.462 473.187 268.952C463.357 267.674 458.214 233.032 463.905 218.427C469.596 203.823 506.768 193.197 512.011 220.106C513.831 229.445 510.895 238.339 505.874 245.919L522.384 293.471L491.847 297.221L492.54 260.114Z" fill="#B28B67"/>
<path fill-rule="evenodd" clip-rule="evenodd" d="M486.831 226.24C483.709 222.644 480.806 219.965 477.294 218.633C463.895 220.493 462.028 218.287 461.035 210.201C463.014 208.388 470.345 204.845 478.823 203.06C483.041 201.277 488.248 200.875 493.491 202.343C499.862 203.328 505.536 206.438 508.701 213.177C518.793 226.487 514.301 242.184 506.405 248.327C503.807 245.926 501.509 243.573 499.437 241.305C500.686 239.749 501.33 237.712 501.068 235.578C500.552 231.375 496.716 228.388 492.5 228.906C492.19 228.944 491.886 229 491.59 229.072C492.046 234.35 493.448 252.224 492.155 258.651C490.631 266.228 476.741 269.748 471.82 270.353C467.57 270.875 467.222 266.845 466.973 263.957C466.937 263.541 466.903 263.149 466.86 262.797C466.77 262.062 467.729 261.947 468.812 261.816C470.218 261.646 471.835 261.451 471.637 259.843C471.422 258.09 468.827 257.043 466.504 256.107C465.055 255.523 463.712 254.982 463.12 254.338C461.252 252.309 460.346 249.373 462.752 249.077C464.068 248.916 465.965 249.45 468.248 250.093C471.694 251.063 476.019 252.281 480.544 251.725C488.021 250.808 486.846 226.545 486.831 226.24Z" fill="#191847"/>
<path fill-rule="evenodd" clip-rule="evenodd" d="M543.912 401.039L496.953 562.338L474.866 683.444H452.697L474.827 401.039H543.912Z" fill="#997659"/>
<path fill-rule="evenodd" clip-rule="evenodd" d="M565.015 401.039C561.739 484.833 563.031 530.536 563.764 538.149C564.498 545.762 568.661 596.75 597.03 685.999H573.973C536.402 600.379 523.286 549.392 518.977 538.149C514.668 526.906 501.942 481.203 483.361 401.039H565.015Z" fill="#B28B67"/>
<path fill-rule="evenodd" clip-rule="evenodd" d="M544.92 401.039C532.705 456.542 511.579 545.14 481.541 666.832H449.117C446.722 541.927 456.91 459.718 474.553 401.039H544.92Z" fill="#69A1AC"/>
<path fill-rule="evenodd" clip-rule="evenodd" d="M565.179 401.039C561.97 484.833 570.286 567.386 596.047 668.136H561.453C523.813 583.794 496.835 501.648 478.397 401.039H565.179Z" fill="#89C5CC"/>
<path fill-rule="evenodd" clip-rule="evenodd" d="M600.317 702.611L599.122 683.414C599.083 682.774 598.46 682.336 597.835 682.479C586.7 685.018 571.056 679.61 571.056 679.61C555.191 690.812 532.12 695.779 524.933 697.114C523.749 697.334 523.002 698.524 523.332 699.682L525.256 706.445H571.056H597.773L600.317 702.611Z" fill="#191847"/>
<path fill-rule="evenodd" clip-rule="evenodd" d="M479.815 702.611L478.62 683.414C478.58 682.774 477.958 682.336 477.333 682.479C466.197 685.018 450.553 679.61 450.553 679.61C434.689 690.812 411.618 695.779 404.431 697.114C403.247 697.334 402.5 698.524 402.829 699.682L404.753 706.445H450.553H477.27L479.815 702.611Z" fill="#191847"/>
<path fill-rule="evenodd" clip-rule="evenodd" d="M398.687 429.21L435.626 394.517L447.313 415.524L409.161 437.072C399.429 451.778 393.754 458.106 392.137 456.059C390.773 454.332 391.445 452.477 392.065 450.768C392.547 449.437 392.997 448.194 392.428 447.171C391.127 444.833 383.524 446.03 376.356 447.473C369.189 448.916 370.904 445.448 372.454 443.649C379.298 438.335 388.043 433.522 398.687 429.21ZM617.961 455.423C613.307 448.341 591.585 376.409 591.585 376.409L565.009 379.778C565.009 379.778 599.366 456 601.924 460.608C605.247 466.593 602.039 476.277 599.865 482.843C599.528 483.859 599.216 484.8 598.957 485.641C603.255 486.958 604.943 484.521 606.723 481.951C608.732 479.049 610.859 475.978 616.996 477.958C619.367 478.723 621.64 479.692 623.862 480.639C631.535 483.91 638.584 486.915 646.86 480.31C648.172 479.262 649.324 475.785 645.25 473.678C635.103 468.428 620.237 458.886 617.961 455.423Z" fill="#B28B67"/>
<path fill-rule="evenodd" clip-rule="evenodd" d="M502.367 274.47L491.133 273.94C454.627 314.104 446.151 383.695 400.506 425.613L414.377 439.015C499.868 417.643 511.27 332.629 502.367 274.47Z" fill="#E87613"/>
<path fill-rule="evenodd" clip-rule="evenodd" d="M567.252 406.407C567.252 406.407 501.078 414.533 469.9 418.361C465.451 418.907 465.504 412.401 465.75 409.091C468.593 370.891 492.629 327.137 486.111 274.057L513.653 266.22C541.452 300.604 555.113 345.463 567.252 406.407Z" fill="#DDE3E9"/>
<path fill-rule="evenodd" clip-rule="evenodd" d="M581.469 431.698C587.13 441.636 592.543 450.249 597.448 456.773L618.326 454.209C611.683 381.535 577.346 329.204 550.209 298.44C555.274 297.449 559.624 294.751 561.896 289.149C569.892 269.429 564.938 259.72 553.559 257.726C547.302 256.629 541.783 258.58 535.177 260.914C529.772 262.825 523.638 264.993 515.775 265.959C515.773 265.959 515.77 265.96 515.768 265.96C515.006 266.054 514.319 266.19 513.701 266.364L504.448 268.038C504.448 268.038 482.309 400.494 504.521 441.146L581.469 431.698Z" fill="#FF9B21"/>
<path fill-rule="evenodd" clip-rule="evenodd" d="M581.469 431.698C574.041 418.66 566.184 403.341 558.485 387.47C558.617 405.973 557.355 424.728 552.709 435.229L581.469 431.698Z" fill="black" fill-opacity="0.1"/>
<path fill-rule="evenodd" clip-rule="evenodd" d="M334.5 377C372.884 377 404 345.884 404 307.5C404 269.116 372.884 238 334.5 238C296.116 238 265 269.116 265 307.5C265 345.884 296.116 377 334.5 377Z" fill="#EAE1A6" fill-opacity="0.8"/>
</svg>
