<svg width="256" height="256" viewBox="0 0 256 256" fill="none" xmlns="http://www.w3.org/2000/svg">
<path d="M155.754 210.358C154.389 206.908 152.905 205.504 150.538 209.476C145.884 217.5 140.829 224.882 136.897 233.067C135.636 235.472 135.023 238.163 135.117 240.876C135.212 243.59 136.011 246.231 137.436 248.543C138.861 250.854 140.862 252.754 143.244 254.057C145.625 255.361 148.305 256.022 151.019 255.976C162.373 255.976 169.475 245.144 165.343 233.509C162.534 225.645 158.883 218.102 155.754 210.358Z" fill="#40D1F2"/>
<path d="M105.281 209.155C103.716 206.547 101.951 206.106 100.667 209.355C97.056 218.423 92.8833 227.41 90.1149 236.758C89.4456 239.065 89.3378 241.498 89.801 243.854C90.2642 246.21 91.2848 248.422 92.7773 250.303C94.2698 252.184 96.191 253.681 98.3802 254.668C100.569 255.655 102.963 256.104 105.361 255.977C108.015 255.963 110.622 255.274 112.935 253.973C115.248 252.672 117.191 250.803 118.581 248.541C119.971 246.28 120.761 243.702 120.876 241.051C120.992 238.399 120.43 235.762 119.243 233.388C115.311 224.963 110.015 217.219 105.281 209.155Z" fill="#40D1F2"/>
<path d="M128.191 72.302C139.023 72.302 146.004 63.6357 141.069 55.9725C138.012 51.7301 134.661 47.7081 131.039 43.9361C130.745 43.437 130.326 43.0231 129.823 42.7357C129.319 42.4483 128.75 42.2971 128.171 42.2971C127.591 42.2971 127.022 42.4483 126.519 42.7357C126.015 43.0231 125.596 43.437 125.302 43.9361C121.635 47.7339 118.204 51.7536 115.031 55.9725C109.855 63.7561 116.997 72.4223 128.191 72.302Z" fill="#28AEAD"/>
<path d="M88.7913 88.4702C96.3341 80.7669 95.2504 69.7337 86.3434 67.8079C81.1652 66.9878 75.9379 66.5185 70.6965 66.4035C68.0485 66.2029 66.3631 67.246 66.6841 70.4156C66.7551 75.6782 67.1571 80.9313 67.8877 86.1434C69.7333 95.4114 80.9676 96.4945 88.7913 88.4702Z" fill="#26354C"/>
<path d="M56.0123 114.911C51.7785 117.979 47.7572 121.33 43.9759 124.941C43.4768 125.235 43.0629 125.655 42.7755 126.158C42.4881 126.661 42.3369 127.23 42.3369 127.81C42.3369 128.389 42.4881 128.958 42.7755 129.462C43.0629 129.965 43.4768 130.384 43.9759 130.678C47.7548 134.354 51.7759 137.772 56.0123 140.909C64.0366 146.125 72.7028 138.984 72.5825 127.79C72.4621 116.596 63.6755 109.976 56.0123 114.911Z" fill="#F45F47"/>
<path d="M70.3751 189.414C75.6377 189.343 80.8908 188.941 86.1029 188.211C95.411 186.245 96.4942 175.01 88.5101 167.187C80.5259 159.363 69.7735 160.727 67.8477 169.634C67.0294 174.799 66.5601 180.013 66.4433 185.241C66.2427 187.929 67.2858 189.615 70.3751 189.414Z" fill="#5FD69A"/>
<path d="M127.789 183.638C116.996 183.638 110.015 192.304 114.91 199.967C117.993 204.2 121.357 208.222 124.98 212.004C126.705 214.05 128.672 214.531 130.678 212.004C134.356 208.216 137.787 204.196 140.949 199.967C146.165 192.384 139.023 183.517 127.789 183.638Z" fill="#28AEAD"/>
<path d="M169.796 188.131C174.961 188.952 180.175 189.421 185.403 189.536C188.051 189.736 189.777 188.693 189.416 185.523C189.378 180.261 188.989 175.007 188.252 169.796C186.246 160.488 175.052 159.405 167.228 167.389C159.405 175.373 160.769 186.206 169.796 188.131Z" fill="#26354C"/>
<path d="M199.967 141.029C204.216 137.98 208.239 134.628 212.004 130.998C214.01 129.273 214.491 127.307 212.004 125.301C208.227 121.61 204.206 118.179 199.967 115.03C191.943 109.814 183.277 116.956 183.397 128.19C183.518 139.424 192.344 145.964 199.967 141.029Z" fill="#F45F47"/>
<path d="M188.132 86.3035C188.984 81.1421 189.467 75.9264 189.577 70.6963C189.577 68.0483 188.735 66.323 185.565 66.6841C180.302 66.722 175.048 67.1109 169.837 67.8478C160.489 69.8138 159.406 81.0477 167.43 88.8714C175.454 96.695 186.206 95.2105 188.132 86.3035Z" fill="#5FD69A"/>
<path d="M229.015 176.335C221.512 172.764 213.568 170.036 205.905 166.746C202.455 165.302 200.449 165.342 201.572 169.836C203.819 178.622 205.584 187.609 208.594 196.155C209.401 198.75 210.87 201.09 212.856 202.944C214.842 204.798 217.277 206.104 219.921 206.731C222.565 207.359 225.326 207.287 227.934 206.523C230.541 205.759 232.905 204.329 234.792 202.374C242.777 194.149 240.169 181.511 229.015 176.335Z" fill="#40D1F2"/>
<path d="M196.357 208.712C187.61 205.543 178.383 203.777 169.355 201.45C166.386 200.728 164.821 201.45 166.226 204.82C170.238 213.848 173.447 223.116 178.262 231.662C179.416 233.765 181.058 235.563 183.048 236.903C185.038 238.243 187.321 239.088 189.704 239.367C192.088 239.646 194.504 239.351 196.75 238.506C198.996 237.661 201.007 236.291 202.616 234.51C204.484 232.618 205.837 230.279 206.548 227.716C207.258 225.153 207.302 222.452 206.675 219.867C206.048 217.283 204.771 214.901 202.965 212.949C201.159 210.997 198.885 209.539 196.357 208.712Z" fill="#40D1F2"/>
<path d="M210.399 100.105C206.908 101.469 205.544 102.954 209.516 105.321C217.34 109.975 224.923 115.03 233.068 118.962C235.472 120.222 238.163 120.835 240.876 120.741C243.59 120.646 246.232 119.848 248.543 118.423C250.854 116.998 252.755 114.997 254.058 112.615C255.361 110.233 256.023 107.554 255.977 104.839C255.977 93.4849 245.184 86.3834 233.509 90.5159C225.685 93.4448 218.142 97.0959 210.399 100.105Z" fill="#40D1F2"/>
<path d="M233.428 136.736C225.002 140.748 217.379 145.964 209.355 150.698C206.747 152.263 206.266 154.028 209.355 155.312C218.463 158.923 227.41 163.096 236.798 165.864C239.102 166.535 241.534 166.644 243.889 166.181C246.244 165.718 248.453 164.697 250.332 163.203C252.211 161.71 253.704 159.787 254.686 157.598C255.668 155.408 256.11 153.014 255.976 150.618C255.971 147.965 255.288 145.358 253.992 143.044C252.696 140.729 250.829 138.784 248.57 137.394C246.312 136.003 243.735 135.213 241.085 135.097C238.435 134.982 235.799 135.546 233.428 136.736Z" fill="#40D1F2"/>
<path d="M169.796 54.3677C178.583 52.161 187.57 50.3556 196.116 47.3866C198.708 46.5746 201.043 45.1022 202.893 43.1139C204.743 41.1257 206.044 38.6902 206.667 36.0469C207.29 33.4036 207.215 30.6434 206.448 28.0381C205.682 25.4327 204.25 23.0719 202.294 21.1875C194.27 13.1632 181.592 15.8112 176.296 26.965C172.725 34.4677 169.997 42.4118 166.707 50.075C165.182 53.5254 165.222 55.5312 169.796 54.3677Z" fill="#40D1F2"/>
<path d="M204.862 89.7545C213.849 85.7424 223.157 82.4926 231.703 77.7181C233.812 76.5664 235.612 74.9255 236.954 72.9331C238.296 70.9408 239.14 68.6554 239.416 66.2689C239.691 63.8825 239.389 61.4648 238.536 59.2193C237.682 56.9737 236.302 54.9657 234.512 53.3644C232.631 51.4932 230.304 50.1338 227.75 49.4147C225.197 48.6957 222.503 48.6408 219.922 49.2558C217.342 49.8708 214.961 51.1351 213.007 52.9285C211.052 54.7219 209.588 56.985 208.754 59.5031C205.584 68.2094 203.819 77.4774 201.492 86.5047C200.73 89.5941 201.652 91.1588 204.862 89.7545Z" fill="#40D1F2"/>
<path d="M100.226 45.5797C101.63 49.0703 103.074 50.4345 105.441 46.4625C110.096 38.4382 115.191 31.0559 119.123 22.8711C120.374 20.4679 120.979 17.781 120.88 15.0736C120.78 12.3662 119.98 9.73096 118.556 7.42583C117.133 5.1207 115.135 3.22469 112.759 1.92334C110.383 0.622003 107.709 -0.0401292 105 0.00188157C93.6458 0.00188157 86.5446 10.7947 90.6771 22.47C93.5658 30.2937 97.1366 37.8363 100.226 45.5797Z" fill="#40D1F2"/>
<path d="M150.74 46.7837C152.304 49.3916 154.03 49.873 155.354 46.7837C158.965 37.6761 163.137 28.7289 165.865 19.3405C166.545 17.0392 166.661 14.6083 166.204 12.2527C165.747 9.8971 164.73 7.68592 163.239 5.80569C161.748 3.92547 159.827 2.43126 157.638 1.44913C155.449 0.467 153.055 0.0257388 150.659 0.16252C148.007 0.167965 145.4 0.851174 143.085 2.14728C140.771 3.4434 138.826 5.30948 137.435 7.56835C136.044 9.82722 135.254 12.4039 135.139 15.054C135.024 17.7042 135.588 20.3399 136.777 22.7108C140.709 30.9758 146.005 38.7193 150.74 46.7837Z" fill="#40D1F2"/>
<path d="M27.0047 79.7629C34.5074 83.3337 42.4515 86.062 50.1147 89.352C53.5651 90.7964 55.5712 90.7561 54.4077 86.2626C52.201 77.476 50.3956 68.4888 47.4266 59.9429C46.6146 57.3514 45.1419 55.0158 43.1537 53.1658C41.1654 51.3159 38.7299 50.0153 36.0866 49.392C33.4433 48.7686 30.6834 48.8438 28.078 49.6104C25.4727 50.377 23.1116 51.8087 21.2272 53.7643C13.3233 61.7886 15.851 74.4268 27.0047 79.7629Z" fill="#40D1F2"/>
<path d="M59.6629 47.226C68.3692 50.3956 77.6374 52.1609 86.6647 54.488C89.6337 55.2503 91.1585 54.4879 89.7943 51.1177C85.7822 42.0903 82.5324 32.8223 77.7579 24.2764C76.6062 22.1683 74.9648 20.3675 72.9724 19.0254C70.9801 17.6833 68.6947 16.8393 66.3082 16.5641C63.9218 16.2889 61.5044 16.5906 59.2588 17.444C57.0133 18.2974 55.0053 19.6775 53.404 21.4681C51.5347 23.3567 50.1799 25.6923 49.4687 28.2526C48.7575 30.8129 48.7137 33.5126 49.3411 36.0947C49.9686 38.6768 51.2465 41.0553 53.0533 43.0038C54.8601 44.9522 57.1354 46.4058 59.6629 47.226Z" fill="#40D1F2"/>
<path d="M45.6202 155.754C49.0707 154.35 50.4349 152.866 46.4629 150.499C38.6793 145.885 31.0964 140.789 22.9116 136.857C20.507 135.597 17.8159 134.984 15.1026 135.078C12.3893 135.173 9.7474 135.972 7.43634 137.396C5.12528 138.821 3.2245 140.823 1.92112 143.204C0.617731 145.586 -0.0435415 148.265 0.00222395 150.98C0.00222395 162.334 10.8351 169.436 22.4703 165.303C30.3341 162.535 37.8768 158.844 45.6202 155.754Z" fill="#40D1F2"/>
<path d="M22.5903 119.202C30.9757 115.19 38.6389 109.974 46.6632 105.24C49.3112 103.675 49.7525 101.95 46.6632 100.626C37.5556 97.0148 28.6085 92.8421 19.2602 90.0738C16.9539 89.4044 14.5211 89.2969 12.1647 89.7601C9.80839 90.2232 7.5971 91.2436 5.71578 92.7361C3.83446 94.2286 2.33757 96.1498 1.35052 98.339C0.363478 100.528 -0.0850727 102.922 0.0421215 105.32C0.047566 107.972 0.730775 110.58 2.02689 112.894C3.323 115.209 5.18896 117.153 7.44783 118.544C9.7067 119.935 12.2835 120.725 14.9336 120.84C17.5838 120.956 20.2194 120.392 22.5903 119.202Z" fill="#40D1F2"/>
<path d="M86.3035 201.572C77.4768 203.779 68.53 205.584 59.9841 208.553C57.3894 209.361 55.0497 210.829 53.1953 212.816C51.3408 214.802 50.0355 217.237 49.4079 219.881C48.7803 222.525 48.852 225.286 49.6161 227.894C50.3801 230.502 51.8102 232.865 53.7653 234.753C61.7896 242.777 74.4677 240.129 79.8038 228.975C83.3746 221.472 86.1029 213.528 89.3527 205.865C90.8372 202.415 90.7971 200.409 86.3035 201.572Z" fill="#40D1F2"/>
<path d="M51.157 166.185C42.1297 170.197 32.8616 173.447 24.2756 178.221C22.1746 179.379 20.3811 181.023 19.0445 183.016C17.7079 185.008 16.8671 187.291 16.5922 189.674C16.3174 192.057 16.6165 194.472 17.4645 196.716C18.3125 198.96 19.685 200.969 21.4673 202.575C23.3518 204.445 25.682 205.803 28.2378 206.522C30.7936 207.24 33.4905 207.294 36.0733 206.68C38.656 206.065 41.0394 204.802 42.9978 203.01C44.9562 201.217 46.425 198.955 47.2653 196.437C50.4349 187.73 52.1601 178.462 54.4871 169.435C55.2495 166.346 54.3667 164.781 51.157 166.185Z" fill="#40D1F2"/>
</svg>
