<svg id="Layer_1_1_" enable-background="new 0 0 64 64" height="512" viewBox="0 0 64 64" width="512" xmlns="http://www.w3.org/2000/svg"><path d="m17 21.734c.965 0 1.75-.785 1.75-1.75s-.785-1.75-1.75-1.75-1.75.785-1.75 1.75.785 1.75 1.75 1.75zm0-2c.138 0 .25.112.25.25 0 .275-.5.275-.5 0 0-.137.112-.25.25-.25z"/><path d="m27 21.734c.965 0 1.75-.785 1.75-1.75s-.785-1.75-1.75-1.75-1.75.785-1.75 1.75.785 1.75 1.75 1.75zm0-2c.138 0 .25.112.25.25 0 .275-.5.275-.5 0 0-.137.112-.25.25-.25z"/><path d="m49.719 33h-4.844c-5.121 0-9.54 3.013-11.613 7.352-1.635-.282-3.404-.341-5.263-.348 0-.007.001-.013.001-.02v-3.617c.863-.501 1.675-1.101 2.406-1.819 2.318-2.276 3.594-5.317 3.594-8.564v-2h.5c1.93 0 3.5-1.57 3.5-3.5s-1.57-3.5-3.5-3.5h-.5v-3-5.18c0-2.698-1.818-5.078-4.421-5.789-4.958-1.352-10.199-1.352-15.157 0-2.604.711-4.422 3.09-4.422 5.789v5.181 3h-.5c-1.93 0-3.5 1.57-3.5 3.5s1.57 3.5 3.5 3.5h.5v2c0 4.492 2.394 8.362 6 10.419v3.581c0 .006.001.011.001.017-7.332.027-14.001.648-14.001 14.998v6c0 .553.448 1 1 1h38c.552 0 1-.447 1-1v-6c0-.181-.005-.355-.007-.532.368.566.867 1.081 1.559 1.427.837.419 1.667.675 2.333.881.383.118.888.274 1.115.396v4.828h2v-5c0-1.355-1.341-1.771-2.524-2.136-.627-.193-1.338-.413-2.028-.759-.83-.415-1.18-1.426-1.331-2.185 1.735-.168 3.44-.646 4.995-1.437.197-.1.4-.185.602-.274.323.36.787.835 1.376 1.334l.562 2.812c.231 1.157.348 2.341.348 3.522v4.123h2v-4.123c0-1.313-.13-2.629-.388-3.913l-.171-.856c1.049.521 2.249.892 3.559.892 1.482 0 2.599-.467 3.316-1.386.728-.933.83-2.076.788-2.879.259-.112.508-.248.733-.43.739-.598 1.163-1.485 1.163-2.435v-1.589c0-6.771-5.509-12.281-12.281-12.281zm-37.719-18.279c1.681-.504 6.181-1.737 10-1.737s8.319 1.233 10 1.737v6.728l-2.151 1.434c-1.532-.497-6.016-1.898-7.849-1.898s-6.317 1.401-7.849 1.898l-2.151-1.434zm3 9.989c1.968-.63 5.669-1.726 7-1.726 1.33 0 5.031 1.096 7 1.726v8.416c-1.93 1.891-4.455 2.915-7.188 2.857-2.673-.049-5.059-1.116-6.812-2.826zm16 5.619v-5.81l1-.667v2.132c0 1.534-.353 3.007-1 4.345zm3.5-11.345c.827 0 1.5.673 1.5 1.5s-.673 1.5-1.5 1.5h-.5v-3zm-22.5-10.18c0-1.799 1.212-3.386 2.948-3.859 4.613-1.258 9.491-1.258 14.104 0 1.736.473 2.948 2.06 2.948 3.859v3.83c-2.083-.599-6.271-1.649-10-1.649s-7.917 1.051-10 1.649zm-2.5 13.18c-.827 0-1.5-.673-1.5-1.5s.673-1.5 1.5-1.5h.5v3zm2.5 1.869 1 .667v5.847c-.636-1.321-1-2.803-1-4.382zm9.775 14.129c.076.001.152.002.228.002 1.385 0 2.728-.246 3.997-.694v2.694c0 2.206-1.794 4-4 4s-4-1.794-4-4v-2.677c1.182.41 2.447.651 3.775.675zm18.225 22.018h-5v-7h-2v7h-22v-7h-2v7h-5v-5c0-12.64 4.89-12.99 12.356-13 .831 2.318 3.044 3.984 5.644 3.984s4.812-1.665 5.643-3.982c1.743.003 3.398.038 4.884.252-.338 1.151-.527 2.363-.527 3.621v.375c0 1.619 1.131 2.75 2.75 2.75h2.356c.33 1.383 1.402 2.47 2.766 2.847.084.968.128 2.023.128 3.153zm17.74-8.617c-.32.409-.905.617-1.74.617-2.183 0-4.079-1.434-5.182-2.493 1.692-.391 3.463-.417 5.175-.052l2.111.452c.018.458-.035 1.055-.364 1.476zm2.26-5.914c-1.085 0-1.969-.883-1.969-1.969h-2c0 2.131 1.691 3.861 3.8 3.952-.067.111-.148.214-.251.297-.267.217-.614.296-.947.227l-2.22-.476c-2.29-.491-4.666-.384-6.891.28.097-.996.929-1.78 1.95-1.78h1.031v-2h-1.031c-2.188 0-3.969 1.78-3.969 3.969v.597c-.099.047-.2.086-.298.136-1.671.849-3.544 1.298-5.417 1.298h-.881c-1.052 0-1.907-.855-1.907-1.907v-.176c0-1.044.849-1.899 1.891-1.906l2.114-.011-.01-2-2.116.011c-1.823.013-3.357 1.288-3.77 2.989h-2.359c-.519 0-.75-.231-.75-.75v-.267h.079c0-1.086.883-1.969 1.969-1.969 2.188 0 3.969-1.78 3.969-3.969v-2.531h-2v2.531c0 1.086-.883 1.969-1.969 1.969-.505 0-.984.104-1.428.277 1.485-4.238 5.515-7.291 10.255-7.291h3.075c.027.058.05.113.05.144v.571c0 .394-.32.714-.714.714h-.286c-1.654 0-3 1.346-3 3s1.346 3 3 3h3v-2h-3c-.551 0-1-.448-1-1s.449-1 1-1h.286c1.497 0 2.714-1.218 2.714-2.714v-.571c0-.044-.011-.087-.014-.13 2.299.06 4.409.873 6.096 2.208l-1.829-.47c-.151.587-.756 1.03-1.41 1.03h-.343l.006 2 .341-.001c1.544 0 2.935-1.045 3.328-2.49 2.33 1.886 3.825 4.766 3.825 7.99z"/></svg>