<?xml version="1.0" encoding="UTF-8" standalone="no"?>
<svg width="99px" height="74px" viewBox="0 0 99 74" version="1.1" xmlns="http://www.w3.org/2000/svg" xmlns:xlink="http://www.w3.org/1999/xlink">
    <!-- Generator: Sketch 3.7.2 (28276) - http://www.bohemiancoding.com/sketch -->
    <title>Page 1</title>
    <desc>Created with Sketch.</desc>
    <defs>
        <polygon id="path-1" points="0 0.239080946 0 59.990186 45.5617712 59.990186 45.5617712 0.239080946 4.40749129e-21 0.239080946"></polygon>
        <polygon id="path-3" points="65.8374033 0.177848285 65.8374033 18.6300295 0 18.6300295 0 0.177848285 65.8374033 0.177848285"></polygon>
    </defs>
    <g id="Web-Mondays-Updates" stroke="none" stroke-width="1" fill="none" fill-rule="evenodd">
        <g id="Blank---Employees" transform="translate(-719.000000, -467.000000)">
            <g id="Group-3" transform="translate(616.000000, 467.000000)">
                <g id="Page-1" transform="translate(102.000000, 0.000000)">
                    <g id="Female" transform="translate(40.564374, 7.054674)">
                        <path d="M56.8169287,35.8207262 C59.0339225,30.94347 56.5951318,26.0662139 55.2650006,24.0801231 C54.2493527,22.5636434 53.7833189,18.716995 53.6197356,16.9829462 C53.5107884,15.8274557 53.2219971,14.6888764 52.6775864,13.6637973 C51.1565537,10.79995 48.1421317,8.91402554 44.761517,8.91402554 C44.761517,8.91402554 40.4836329,-0.234285214 27.5241222,1.42106145 C24.6391359,1.78953056 21.8770811,2.79249503 19.3475553,4.22799605 C18.4935395,4.71289229 17.4352884,5.24657085 16.252805,5.70089684 C13.2003327,6.87329856 10.6730834,9.08834103 8.97058051,11.8799905 C7.68760554,13.9838093 6.00494077,16.0804733 5.3847549,18.046726 C4.24552516,21.6582436 5.98510263,25.6658736 5.02994484,29.3304014 C4.03901335,33.1337961 0.245700276,36.2428559 0.809623876,40.1330832 C1.04507987,41.7575344 2.04186524,43.1917345 2.30886712,44.8116327 C2.77164872,47.6188925 0.98036199,50.3991594 1.28346279,53.2282087 C1.52282137,55.4643902 3.41590053,57.8729358 6.06120305,59.4739715 L6.55553054,59.8183747 C5.86477291,61.2916007 5.42443119,62.8893842 5.29987367,64.5457065 L53.1647592,64.5457065 C53.0161357,62.5758765 52.4437565,60.6775939 51.504209,58.9890753 L52.0538232,58.9890753 C55.3628904,57.0478642 57.0959636,53.6259472 57.0894593,51.1816278 C57.0855567,49.7903561 56.7203397,48.4390859 56.1648717,47.1639161 C54.209026,42.6736663 56.8169287,35.8207262 56.8169287,35.8207262" id="Fill-1" fill="#FFFFFF"></path>
                        <path d="M18.338184,26.7271818 C18.1206149,26.7271818 17.9085744,26.6159581 17.7892204,26.4156254 C17.6087258,26.1125245 17.7082417,25.7206399 18.0110173,25.5404706 C19.7470174,24.5062854 21.7275795,24.0643176 23.7380615,24.2561947 L25.1973032,24.397013 C25.5482107,24.4308354 25.8051309,24.7427171 25.7713085,25.0939497 C25.7374861,25.444532 25.424954,25.6985253 25.074697,25.667955 L23.6157805,25.5274619 C21.8771786,25.3590003 20.1649193,25.743405 18.6640499,26.6374223 C18.5616071,26.6982376 18.4490825,26.7271818 18.338184,26.7271818" id="Fill-3" fill="#C0C0C8"></path>
                        <path d="M41.1787159,26.7271818 C41.0674922,26.7271818 40.9552929,26.6982376 40.85285,26.6374223 C39.3516555,25.7430798 37.6393961,25.359976 35.9011195,25.5274619 L34.442203,25.667955 C34.0912955,25.6978748 33.7794139,25.444532 33.7455915,25.0939497 C33.711769,24.7427171 33.9686893,24.4308354 34.3195967,24.397013 L35.7788385,24.2561947 C37.7896456,24.063342 39.7695573,24.5062854 41.5058826,25.5404706 C41.8086582,25.7206399 41.9081742,26.1125245 41.7276796,26.4156254 C41.6083255,26.6159581 41.396285,26.7271818 41.1787159,26.7271818" id="Fill-5" fill="#C0C0C8"></path>
                        <path d="M26.2992958,60.6172339 C26.1363628,60.6172339 25.9789586,60.5551178 25.8599297,60.4419428 L20.1143483,54.9877544 C19.9875142,54.8670995 19.9156416,54.6999387 19.9156416,54.5249728 L19.9156416,50.9079265 C19.9156416,50.5553929 20.201506,50.2695286 20.5537143,50.2695286 C20.9062479,50.2695286 21.1921123,50.5553929 21.1921123,50.9079265 L21.1921123,54.2508162 L26.2176667,59.0210765 L29.2499756,54.9562085 C29.3703053,54.7949016 29.5599059,54.6996135 29.7615395,54.6996135 C29.9631731,54.6996135 30.1527737,54.7949016 30.2731034,54.9562085 L33.3054123,59.0210765 L38.3306416,54.2508162 L38.3306416,50.9079265 C38.3306416,50.5553929 38.6165059,50.2695286 38.9690395,50.2695286 C39.321573,50.2695286 39.6074374,50.5553929 39.6074374,50.9079265 L39.6074374,54.5249728 C39.6074374,54.6999387 39.5355648,54.8670995 39.4084056,54.9877544 L33.6631493,60.4419428 C33.5307866,60.5678012 33.3506173,60.6289417 33.1694723,60.6149574 C32.9873516,60.5993471 32.8211665,60.5066607 32.7118941,60.3606389 L29.7615395,56.4053686 L26.8108597,60.3606389 C26.7019125,60.5066607 26.5354022,60.5993471 26.3536068,60.6149574 C26.3353947,60.6162583 26.3175078,60.6172339 26.2992958,60.6172339" id="Fill-7" fill="#C0C0C8"></path>
                        <path d="M53.0766908,66.0263677 L5.38774688,66.0263677 C5.14936395,66.0263677 4.92171313,65.9211064 4.75943062,65.7360393 C4.59714811,65.5513161 4.51519382,65.3029547 4.53308067,65.0514973 C4.8556944,60.5259519 7.00439291,56.4878418 10.4289117,53.9729238 L10.6207888,53.8339514 C12.2784119,52.6468385 14.0892116,51.7352624 16.0040802,51.1236465 C16.0313983,51.1150467 16.0587164,51.1078229 16.0866849,51.101975 L23.2736213,49.6083662 C23.7386794,49.5092968 24.1887776,49.8319603 24.2801631,50.3235235 C24.3712234,50.8143986 24.0687731,51.2911701 23.6043654,51.3874876 L16.4593818,52.8724966 C14.7250078,53.431138 13.0842958,54.2591243 11.5827761,55.334784 L11.407485,55.4617167 C8.65551178,57.4826637 6.84406169,60.6336211 6.34485597,64.2131912 L52.1195817,64.2131912 C51.620376,60.6336211 49.8089259,57.4826637 47.0579284,55.4624047 L46.8810112,55.3340961 C45.3768897,54.2570603 43.7332508,53.4276981 41.9949742,52.8690567 L35.6760379,51.3830157 C35.2142319,51.2743145 34.9228389,50.7899752 35.025607,50.301164 C35.128375,49.8126969 35.5862784,49.5055129 36.0484096,49.6131821 L42.3985666,51.1067909 C42.4190551,51.1116068 42.4398689,51.1171106 42.4600323,51.1236465 C44.3752261,51.7352624 46.1860257,52.6468385 47.8426733,53.8332634 L48.035526,53.9729238 C51.4597196,56.4878418 53.6087433,60.5256079 53.931357,65.0514973 C53.9495691,65.3029547 53.8672896,65.5513161 53.7053323,65.7360393 C53.5430498,65.9211064 53.3150737,66.0263677 53.0766908,66.0263677" id="Fill-9" fill="#C0C0C8"></path>
                        <path d="M51.9708607,59.5932931 C51.6765407,59.5932931 51.3903511,59.4417427 51.2306703,59.1698625 C50.9909865,58.7613919 51.1279022,58.236169 51.5360476,57.9968104 C54.5592505,56.2234105 56.1355698,53.1140255 56.1297159,50.9591479 C56.1264638,49.7997548 55.8487298,48.6013359 55.2802532,47.2965715 C53.2154602,42.5568814 55.8031996,35.6401991 55.9144233,35.3478304 C55.9209276,35.3309192 55.9277571,35.3146585 55.9349119,35.2980725 C58.1106033,30.5122018 55.3537519,25.7715361 54.4574581,24.4326241 C53.3673359,22.805246 52.873984,19.0551866 52.6769034,16.9647016 C52.570558,15.836204 52.2869701,14.8316134 51.8342702,13.979549 C50.4329168,11.3414012 47.701107,9.7026405 44.7045718,9.7026405 C44.2310581,9.7026405 43.8473038,9.31856105 43.8473038,8.84537256 C43.8473038,8.37218407 44.2310581,7.98810462 44.7045718,7.98810462 C48.3369032,7.98810462 51.6488974,9.9761467 53.3481481,13.1756163 C53.9071935,14.2283388 54.2554993,15.4491976 54.3836342,16.8040452 C54.688361,20.0379877 55.2483821,22.5333659 55.8812513,23.478442 C56.901127,25.0014259 60.0277484,30.3964251 57.5083043,35.9793989 C57.3528513,36.4021789 55.1202472,42.6365592 56.8516942,46.6119929 C57.506353,48.1144883 57.8403492,49.5753562 57.8442518,50.9549201 C57.8507561,53.5172927 56.1511802,57.2771086 52.4037225,59.4755651 C52.2674572,59.5552428 52.1178581,59.5932931 51.9708607,59.5932931" id="Fill-11" fill="#C0C0C8"></path>
                        <g id="Group-15" transform="translate(0.000000, 0.086182)">
                            <mask id="mask-2" fill="white">
                                <use xlink:href="#path-1"></use>
                            </mask>
                            <g id="Clip-14"></g>
                            <path d="M6.14546637,59.990186 C5.99424118,59.990186 5.84106471,59.9501845 5.70252292,59.8662789 C2.77851076,58.0967816 0.797948641,55.466439 0.533873691,53.0016311 C0.371916395,51.4897044 0.736157704,50.0447722 1.08836604,48.6473214 C1.43992395,47.2531227 1.77196893,45.9360001 1.56220496,44.6640825 C1.44772912,43.9687718 1.16934469,43.2877706 0.874699488,42.5664428 C0.54330494,41.7550302 0.200853065,40.9159743 0.0658886512,39.9858581 C-0.314938647,37.3590929 1.02202209,35.1281149 2.31475352,32.9703103 C3.10665316,31.6483095 3.92554567,30.2811037 4.28978698,28.8839781 C4.71224186,27.2627791 4.55581323,25.5436902 4.39027856,23.7234593 C4.20685704,21.7071235 4.01725643,19.6221672 4.65500394,17.6003027 C5.12884286,16.0991082 6.1522959,14.5624651 7.14225174,13.0765557 C7.53836417,12.4820619 7.94781042,11.8674047 8.3133526,11.2680326 C10.1417139,8.26954607 12.8692959,5.9575894 15.9933156,4.75786959 C16.9754662,4.38061966 17.9738777,3.90515466 18.9609066,3.34513365 C21.7083268,1.78572554 24.5549376,0.809428747 27.4217119,0.443236144 C34.3832739,-0.446228126 38.9109235,1.74019538 41.483703,3.72986353 C44.2951906,5.90425407 45.4337699,8.29556331 45.4809261,8.39605489 C45.6812588,8.82501407 45.4965365,9.33495191 45.0675773,9.53560984 C44.6392685,9.73659299 44.1299811,9.55122018 43.928998,9.12453751 C43.7634633,8.77558132 39.737296,0.599014347 27.6389558,2.14378776 C24.9943037,2.48168662 22.3594081,3.38741166 19.806792,4.8359213 C18.7459392,5.43822032 17.6698012,5.95010945 16.6076476,6.35792963 C13.8351858,7.42268503 11.4094037,9.48357537 9.77682214,12.1604238 C9.39339312,12.7890653 8.9741904,13.4183572 8.56897194,14.0268353 C7.60275683,15.4772962 6.69020226,16.8471037 6.28986203,18.1160944 C5.75553304,19.8094913 5.92171814,21.6352509 6.0976597,23.5683315 C6.26904824,25.4549064 6.44629067,27.4058739 5.94871102,29.3165147 C5.52235356,30.9513728 4.6393936,32.4255744 3.78537781,33.8509938 C2.5941136,35.8390359 1.46919334,37.7171551 1.76253768,39.7399952 C1.86693184,40.4619736 2.15604838,41.1693172 2.46175091,41.9182884 C2.77916119,42.6955533 3.1076288,43.4994859 3.25365054,44.3853728 C3.52130286,46.0091736 3.12974346,47.5633782 2.75086745,49.0665241 C2.42077376,50.3755163 2.10921736,51.6116602 2.23832789,52.8191852 C2.44353884,54.7334034 4.15157042,56.9240547 6.5900359,58.3995572 C6.99492914,58.6447697 7.12469011,59.1716187 6.87947765,59.5768372 C6.718496,59.8428634 6.43555856,59.990186 6.14546637,59.990186" id="Fill-13" fill="#C0C0C8" mask="url(#mask-2)"></path>
                        </g>
                        <path d="M37.3766545,30.5522684 C37.1490037,30.5522684 36.9343615,30.4644602 36.7717538,30.3018525 C36.6091461,30.1392447 36.5213379,29.9246025 36.5213379,29.6936996 C36.5213379,29.4693009 36.6123982,29.2481544 36.7717538,29.0887988 C37.0904649,28.7704129 37.6660963,28.7704129 37.9815553,29.0887988 C38.1409109,29.2481544 38.2352233,29.4693009 38.2352233,29.6936996 C38.2352233,29.9246025 38.144163,30.1392447 37.9815553,30.3018525 C37.8221997,30.4615333 37.6043054,30.5522684 37.3766545,30.5522684" id="Fill-16" fill="#C0C0C8"></path>
                        <path d="M22.5826685,30.5522684 C22.3550177,30.5522684 22.1403755,30.4644602 21.9777678,30.3018525 C21.81516,30.1392447 21.7273519,29.9246025 21.7273519,29.6936996 C21.7273519,29.4693009 21.8184122,29.2481544 21.9777678,29.0887988 C22.2932268,28.7704129 22.8688581,28.7671607 23.1908214,29.0887988 C23.350177,29.2481544 23.4412373,29.4693009 23.4412373,29.6936996 C23.4412373,29.9246025 23.3534291,30.1392447 23.1908214,30.3018525 C23.0282137,30.4644602 22.8135715,30.5522684 22.5826685,30.5522684" id="Fill-18" fill="#C0C0C8"></path>
                        <path d="M47.2923762,36.5099879 C47.2526999,36.5099879 47.2126984,36.5070609 47.1723717,36.5018575 C46.703411,36.4358387 46.3768947,36.0023265 46.4425882,35.5336911 C47.3405081,29.1288979 44.3673884,23.5651119 43.4349957,22.0128585 C43.2356386,21.6804883 42.9474977,21.1731522 42.7481406,20.6033747 C42.4144696,19.6475665 42.2043804,18.5226463 42.1230765,17.2601599 C42.0414475,15.9888926 41.1015748,15.2965089 40.3217081,15.0893467 C39.3447609,14.8291743 38.4351333,15.168374 37.8894217,15.9957222 C37.8448672,16.063367 37.8029144,16.1323127 37.7632381,16.2035348 C35.782676,19.7568389 32.8924863,21.1510376 29.6247214,20.1256332 C28.2484096,19.6947228 26.9033184,19.6745594 25.6268478,20.0670945 C24.2027293,20.5048345 22.9477229,21.492839 22.0933819,22.8493127 C20.9486235,24.6666166 18.5540621,27.7740503 15.3780079,28.1646341 C15.1994646,28.1857731 11.1570365,28.7301837 10.5189638,33.7726494 C10.4594494,34.2422605 10.0295146,34.5749559 9.56087908,34.5151163 C9.09126797,34.4559271 8.75889777,34.0269679 8.81808698,33.5573567 C9.62982476,27.1444332 15.1243399,26.467985 15.1796265,26.4618059 C17.7345191,26.1476478 19.8516717,23.1920898 20.6429209,21.9361077 C21.7158067,20.2319787 23.3070859,18.9864035 25.1234143,18.4283338 C26.7368081,17.9323802 28.4240259,17.9528688 30.1372609,18.4901247 C32.6160531,19.2667392 34.6782443,18.2169437 36.2662714,15.3680563 C36.3274119,15.2587839 36.3914794,15.1530889 36.4591242,15.0509713 C37.4006229,13.6239259 39.089792,12.9878044 40.7617246,13.4323739 C42.5126847,13.897432 43.7185836,15.3566738 43.8337098,17.150237 C43.904932,18.2575957 44.0844509,19.2293394 44.366738,20.0381503 C44.4802382,20.3627153 44.6457728,20.6996385 44.9046443,21.1298986 C45.9102105,22.8044329 49.1161845,28.8092111 48.1398877,35.7717488 C48.080048,36.2003828 47.7128798,36.5099879 47.2923762,36.5099879" id="Fill-20" fill="#C0C0C8"></path>
                        <path d="M29.7585475,49.5341839 C26.9503121,49.5341839 23.1417139,47.7851752 20.055094,45.0787322 C17.9489987,43.2321588 14.4161832,39.3620949 14.4161832,34.1914944 L14.4161832,28.212083 C14.4161832,27.7385693 14.7999375,27.3548151 15.2731259,27.3548151 C15.7466396,27.3548151 16.1303939,27.7385693 16.1303939,28.212083 L16.1303939,34.1914944 C16.1303939,41.6496604 25.1531715,47.8199732 29.7585475,47.8199732 C34.3639236,47.8199732 43.3867012,41.6496604 43.3867012,34.1914944 L43.3867012,21.8111924 C43.3867012,21.3380039 43.7704554,20.9539245 44.2439691,20.9539245 C44.7171576,20.9539245 45.1009119,21.3380039 45.1009119,21.8111924 L45.1009119,34.1914944 C45.1009119,39.3620949 41.5680964,43.2321588 39.4620011,45.0787322 C36.3753812,47.7851752 32.5664578,49.5341839 29.7585475,49.5341839" id="Fill-22" fill="#C0C0C8"></path>
                        <path d="M29.7615395,42.5719064 C28.7130449,42.5719064 27.6645503,42.2466909 26.7897207,41.59626 C26.409869,41.3136478 26.3308417,40.7767171 26.6134539,40.3971906 C26.8957409,40.0166886 27.4326716,39.9386368 27.8125233,40.2205986 C28.9602086,41.0742892 30.5628704,41.0742892 31.7102305,40.2205986 C32.0900822,39.9386368 32.6270129,40.0166886 32.9096251,40.3971906 C33.1919121,40.7767171 33.11321,41.3136478 32.7333583,41.59626 C31.8582036,42.2466909 30.8100341,42.5719064 29.7615395,42.5719064" id="Fill-24" fill="#C0C0C8"></path>
                        <path d="M31.280751,36.5115814 L28.242263,36.5115814 C27.9264788,36.5115814 27.6360614,36.3379164 27.4867875,36.0592067 C27.3375136,35.7811475 27.3534492,35.4429234 27.5284151,35.1798241 C28.1144533,34.298165 28.4240584,33.2724355 28.4240584,32.2138592 L28.4240584,30.8619385 C28.4240584,30.38875 28.8078127,30.0046706 29.2813264,30.0046706 C29.7548401,30.0046706 30.1385943,30.38875 30.1385943,30.8619385 L30.1385943,32.2138592 C30.1385943,33.1052747 29.972084,33.9791287 29.6504459,34.7973708 L31.280751,34.7973708 C31.7542647,34.7973708 32.1380189,35.181125 32.1380189,35.6543135 C32.1380189,36.127502 31.7542647,36.5115814 31.280751,36.5115814" id="Fill-26" fill="#C0C0C8"></path>
                        <path d="M29.7585475,56.301137 C28.2989806,56.301137 26.8397388,55.8832351 25.5661951,55.046781 L23.8571879,53.923812 C23.615878,53.7654321 23.4705067,53.4961537 23.4705067,53.2073624 L23.4705067,47.3541346 C23.4705067,46.8809461 23.8542609,46.4971919 24.3277747,46.4971919 C24.8009631,46.4971919 25.1850426,46.8809461 25.1850426,47.3541346 L25.1850426,52.744906 L26.5073686,53.6135565 C28.4824021,54.9114914 31.034693,54.9114914 33.0094012,53.6135565 L34.3320525,52.744906 L34.3320525,47.3541346 C34.3320525,46.8809461 34.7158067,46.4971919 35.1893204,46.4971919 C35.6625089,46.4971919 36.0462631,46.8809461 36.0462631,47.3541346 L36.0462631,53.2073624 C36.0462631,53.4961537 35.9012171,53.7654321 35.6599072,53.923812 L33.9505748,55.046781 C32.6776815,55.8829099 31.2177893,56.301137 29.7585475,56.301137" id="Fill-28" fill="#C0C0C8"></path>
                    </g>
                    <g id="Male" transform="translate(0.881834, 0.529101)">
                        <path d="M55.8868248,63.1125492 L50.0329234,59.7777739 L43.3046979,55.3036445 L43.3046979,50.6077812 L42.8718966,50.6077812 L45.0526193,48.2070644 C47.2042706,45.8381283 48.4877755,42.837963 48.7545061,39.692045 L49.1124484,39.46264 C49.9776877,39.087117 50.6078115,38.3137881 50.8040438,37.3874008 L51.2037764,35.4980966 C51.5962411,33.6445913 51.793927,31.7545566 51.793927,29.8594077 L51.793927,29.8331065 C51.7815716,28.8307378 50.9410431,28.0566784 49.9606082,27.9591447 L51.2317577,27.9394188 C51.5155678,23.8440999 51.2673702,18.7624854 49.6404587,13.232289 C49.6404587,13.232289 47.6730479,7.42446859 44.405416,5.20274625 L44.0663701,6.56639135 C44.0663701,6.56639135 35.0520379,3.18522364 32.9759724,0.963135997 L32.4377871,2.99198274 L28.7856852,1.44605559 C28.7856852,1.44605559 26.9116664,5.31050818 22.0102186,5.98666867 L21.5650619,5.14977852 C18.2977935,7.37186616 16.1973807,13.232289 16.1973807,13.232289 C14.49452,19.0192876 14.302285,24.3142342 14.6485988,28.5030685 L14.6507791,28.5027032 C14.2870225,28.8409661 14.0504535,29.3059862 14.0439124,29.8331065 C14.0439124,29.8418735 14.043549,29.8506406 14.043549,29.8594077 C14.043549,31.7545566 14.241235,33.6445913 14.6336996,35.4980966 L15.0334322,37.3874008 C15.2002297,38.1738803 16.245712,39.2171619 17.0873307,39.7442822 C17.3642363,42.8708395 18.6455608,45.8512789 20.7852201,48.2070644 L22.9655794,50.6077812 L22.5327781,50.6077812 L22.5327781,55.3036445 L15.804916,59.7777739 L9.95101459,63.1125492 C5.89082214,64.6562846 2.639543,67.807682 0.957759172,71.8303072 L64.8797168,71.8303072 C63.197933,67.807682 59.9466539,64.6562846 55.8868248,63.1125492" id="Fill-1" fill="#FFFFFF"></path>
                        <path d="M21.6560556,28.1503399 C21.3809669,28.1503399 21.1189604,27.9899755 21.0019478,27.7200228 C20.8445985,27.3572851 21.0092157,26.9346392 21.3704285,26.7761013 C23.446494,25.8654216 25.7365981,25.482958 27.9947235,25.6703542 C28.3871882,25.7028654 28.6793564,26.0491648 28.646651,26.4436831 C28.614309,26.8382014 28.2698122,27.1322636 27.8773475,27.0993871 C25.8539741,26.9309862 23.8015292,27.2739979 21.9409559,28.0904316 C21.8482906,28.1309793 21.7512646,28.1503399 21.6560556,28.1503399" id="Fill-3" fill="#C0C0C8"></path>
                        <path d="M44.1814568,28.1503399 C44.0862477,28.1503399 43.9895852,28.1309793 43.8965565,28.0904316 C42.0359832,27.2739979 39.9824481,26.9306209 37.9605282,27.0993871 C37.5695171,27.137743 37.2235668,26.8382014 37.1908614,26.4440484 C37.1585194,26.0491648 37.4506875,25.7028654 37.8431522,25.6703542 C40.1009143,25.482958 42.3910184,25.8654216 44.4670838,26.7761013 C44.8282967,26.9346392 44.9929138,27.3572851 44.8355646,27.7200228 C44.718552,27.9899755 44.4565454,28.1503399 44.1814568,28.1503399" id="Fill-5" fill="#C0C0C8"></path>
                        <path d="M32.918738,49.8618494 C32.212665,49.8618494 31.5069553,49.7047727 30.8492136,49.3906192 C30.4934517,49.2207572 30.3422801,48.7929971 30.5112579,48.4353736 C30.6802358,48.0781154 31.1054058,47.9254222 31.4615312,48.0956495 C32.3878205,48.5380214 33.4496555,48.5380214 34.3759448,48.0956495 C34.7317068,47.9250569 35.1568769,48.0777501 35.3262181,48.4353736 C35.4951959,48.7929971 35.343661,49.2207572 34.987899,49.3906192 C34.3305207,49.7047727 33.6244476,49.8618494 32.918738,49.8618494" id="Fill-7" fill="#C0C0C8"></path>
                        <path d="M32.918738,72.547198 C32.5248198,72.547198 32.2053971,72.226104 32.2053971,71.8301245 L32.2053971,67.451337 C32.2053971,67.0553575 32.5248198,66.7342635 32.918738,66.7342635 C33.3126563,66.7342635 33.6320789,67.0553575 33.6320789,67.451337 L33.6320789,71.8301245 C33.6320789,72.226104 33.3126563,72.547198 32.918738,72.547198" id="Fill-9" fill="#C0C0C8"></path>
                        <path d="M32.918738,68.1726114 C32.8595049,68.1726114 32.7999084,68.1649402 32.7421289,68.1499631 L24.5694154,66.0502492 C21.0154297,65.1373777 18.533454,61.9246109 18.533454,58.2373262 C18.533454,57.8413467 18.8525132,57.5202527 19.2464315,57.5202527 C19.6403497,57.5202527 19.9597724,57.8413467 19.9597724,58.2373262 C19.9597724,61.2692722 22.0005887,63.9107181 24.9226336,64.6613987 L32.918738,66.7158161 L40.9148424,64.6613987 C43.8368873,63.9107181 45.8777036,61.2692722 45.8777036,58.2373262 C45.8777036,57.8413467 46.1971263,57.5202527 46.5910445,57.5202527 C46.9849628,57.5202527 47.304022,57.8413467 47.304022,58.2373262 C47.304022,61.9246109 44.8220463,65.1373777 41.2680606,66.0502492 L33.0953471,68.1499631 C33.0375676,68.1649402 32.9779711,68.1726114 32.918738,68.1726114" id="Fill-11" fill="#C0C0C8"></path>
                        <path d="M24.7968632,31.5439642 C24.5424879,31.5439642 24.2990145,31.4416817 24.1173179,31.262322 C23.9356213,31.0796746 23.8375051,30.8385801 23.8375051,30.5792209 C23.8375051,30.3275328 23.9392552,30.0787671 24.1173179,29.900138 C24.4734432,29.5421492 25.1166492,29.5421492 25.4727746,29.900138 C25.6508373,30.0787671 25.7525874,30.3275328 25.7525874,30.5792209 C25.7525874,30.8385801 25.6544712,31.0796746 25.4727746,31.262322 C25.291078,31.4416817 25.0512384,31.5439642 24.7968632,31.5439642" id="Fill-13" fill="#C0C0C8"></path>
                        <path d="M41.0406128,31.5439642 C40.7862376,31.5439642 40.546398,31.4416817 40.3647014,31.262322 C40.1830048,31.0796746 40.0848887,30.8385801 40.0848887,30.5792209 C40.0848887,30.3275328 40.1866388,30.0787671 40.3647014,29.900138 C40.7208268,29.5421492 41.3603989,29.5421492 41.7201581,29.900138 C41.8982208,30.0787671 41.9999709,30.3275328 41.9999709,30.5792209 C41.9999709,30.8385801 41.8982208,31.0796746 41.7201581,31.262322 C41.5384615,31.4416817 41.2949881,31.5439642 41.0406128,31.5439642" id="Fill-15" fill="#C0C0C8"></path>
                        <path d="M34.1281833,38.8534015 L31.709438,38.8534015 C31.1803375,38.8534015 30.7515335,38.4219884 30.7515335,37.8904846 L30.7515335,30.6872385 C30.7515335,30.1553694 31.1803375,29.7243217 31.709438,29.7243217 C32.2381752,29.7243217 32.6669792,30.1553694 32.6669792,30.6872385 L32.6669792,36.9279331 L34.1281833,36.9279331 C34.6572839,36.9279331 35.0860879,37.3589809 35.0860879,37.8904846 C35.0860879,38.4219884 34.6572839,38.8534015 34.1281833,38.8534015" id="Fill-17" fill="#C0C0C8"></path>
                        <path d="M32.918738,46.0858346 C31.3365239,46.0858346 29.7554,45.5926868 28.4355558,44.6063911 C28.0107492,44.28895 27.9224446,43.6862138 28.2382333,43.2595496 C28.554022,42.8321548 29.1539842,42.7448493 29.5780641,43.0611946 C31.5447482,44.5307751 34.292001,44.5315057 36.2594119,43.0611946 C36.6831284,42.7444841 37.283454,42.8321548 37.5992427,43.2595496 C37.9150314,43.6862138 37.8267268,44.2893153 37.4019202,44.6063911 C36.0824394,45.5926868 34.5002253,46.0858346 32.918738,46.0858346" id="Fill-19" fill="#C0C0C8"></path>
                        <path d="M14.6475813,29.46562 C14.15482,29.46562 13.7358277,29.0853482 13.6940374,28.5827027 C13.2554218,23.2804502 13.7885197,18.0242248 15.2787953,12.9594138 C15.2838828,12.9415144 15.2896971,12.9239803 15.2962382,12.9060808 C15.3863597,12.6547581 17.5423716,6.72273748 21.0284028,4.35270549 C21.2533432,4.2000123 21.5320658,4.15033223 21.7947991,4.21535468 C22.0582592,4.28110773 22.281746,4.4553533 22.4096604,4.69571721 L22.52849,4.91964286 C26.3928135,4.09553802 27.9088901,1.05628614 27.924516,1.02450551 C28.147276,0.564964778 28.6887319,0.360399748 29.1571458,0.558754768 L31.7953805,1.67546066 L32.0504826,0.714735604 C32.1402407,0.377203304 32.404791,0.114556417 32.7420199,0.0294427526 C33.0788854,-0.0560362065 33.4357375,0.0491686662 33.6737601,0.30377907 C35.0684633,1.7967385 40.475391,4.12512689 43.3992529,5.27799695 L43.4762922,4.96895764 C43.5522414,4.66393657 43.7710041,4.41553618 44.0628089,4.3033907 C44.3553404,4.19124523 44.6831211,4.22850529 44.9418571,4.40494263 C48.4355195,6.78081934 50.4625269,12.6722922 50.5468341,12.9221538 C50.5511948,12.9345738 50.5551922,12.9466285 50.5588261,12.9594138 C51.9935025,17.8342716 52.5411361,22.8972561 52.1871911,28.0062677 C52.150125,28.5366756 51.6886156,28.9384998 51.1653294,28.8997785 C50.6376824,28.863249 50.2394035,28.4029777 50.2764696,27.8729351 C50.6140619,23.0009998 50.092956,18.1743609 48.7284144,13.5267165 C48.6270277,13.2366725 47.2090674,9.25422973 44.9538491,6.9276678 C44.8699052,7.13734696 44.7140095,7.31195783 44.5123263,7.41862388 C44.2706698,7.54611173 43.9868597,7.56437646 43.7313943,7.46830396 C42.9203006,7.16401347 36.6463166,4.7786391 33.5214983,2.64166513 L33.3626955,3.24001784 C33.2914704,3.50887474 33.1075935,3.73389627 32.8590325,3.85627 C32.6104715,3.97937431 32.3212105,3.9866802 32.0657451,3.87891827 L29.1731351,2.65445044 C28.2926333,3.93992248 26.1257195,6.3906846 22.1403861,6.94081841 C21.8126054,6.98538437 21.4899122,6.85753122 21.2813245,6.61168789 C18.8622158,8.88162914 17.2400285,13.1742071 17.1070266,13.5354836 C15.6908832,18.3613918 15.1850398,23.3699474 15.602942,28.4230689 C15.6469126,28.9531115 15.2551747,29.4181317 14.7282545,29.4619671 C14.7010001,29.4645241 14.674109,29.46562 14.6475813,29.46562" id="Fill-25" fill="#C0C0C8"></path>
                        <path d="M16.7247006,40.4255568 C16.5978763,40.4255568 16.4692351,40.4003515 16.345318,40.3462878 C15.1973589,39.8480259 14.3568303,38.8167989 14.0970042,37.5875823 L13.6969083,35.6982781 C13.2913614,33.7823074 13.0856809,31.8181178 13.0856809,29.8594077 C13.0856809,29.8531977 13.0860442,29.8203212 13.0864076,29.8137458 C13.1056675,28.2532069 14.4491322,26.9772325 16.0811312,26.9772325 L17.8588508,26.9772325 C18.3879513,26.9772325 18.8167553,27.4082803 18.8167553,27.9397841 C18.8167553,28.4712878 18.3879513,28.9027009 17.8588508,28.9027009 L16.0811312,28.9027009 C15.5022458,28.9027009 15.0076676,29.3344792 15.0014899,29.8451612 C15.0014899,31.6833241 15.1929981,33.5130852 15.5705637,35.2975498 L15.9702962,37.1872193 C16.1014812,37.8071244 16.5259245,38.327304 17.1051733,38.5789921 C17.5906666,38.7897671 17.8141534,39.3563392 17.6044756,39.8443729 C17.4482165,40.2082064 17.0953616,40.4255568 16.7247006,40.4255568" id="Fill-21" fill="#C0C0C8"></path>
                        <path d="M49.1128118,40.4255568 C48.7421507,40.4255568 48.3892959,40.2082064 48.2330368,39.8443729 C48.0233589,39.3563392 48.2468457,38.7897671 48.7323391,38.5789921 C49.3115879,38.327304 49.7360312,37.8071244 49.8672161,37.186854 L50.2669487,35.2979151 C50.6445142,33.5130852 50.8360224,31.6833241 50.8360224,29.8594077 C50.8298448,29.3344792 50.3352666,28.9027009 49.7563812,28.9027009 L47.9786616,28.9027009 C47.4499244,28.9027009 47.0211204,28.4712878 47.0211204,27.9397841 C47.0211204,27.4082803 47.4499244,26.9772325 47.9786616,26.9772325 L49.7563812,26.9772325 C51.3883801,26.9772325 52.7318449,28.2532069 52.7514681,29.8210517 C52.7514681,29.82507 52.7518315,29.8553894 52.7518315,29.8594077 C52.7518315,31.8181178 52.5461509,33.7823074 52.1406041,35.6986434 L51.7405082,37.587217 C51.480682,38.8167989 50.6401535,39.8480259 49.4921943,40.3462878 C49.3682772,40.4003515 49.239636,40.4255568 49.1128118,40.4255568" id="Fill-23" fill="#C0C0C8"></path>
                        <path d="M18.9976525,26.3474279 L18.0615515,37.0136678 C17.651644,40.8704492 18.9028068,44.7071394 21.4923469,47.5575339 L24.6033563,50.982537 C26.0478444,52.5733954 28.1050134,53.4855363 30.2475798,53.4855363 L35.5898235,53.4855363 C37.73239,53.4855363 39.789559,52.5733954 41.2344104,50.982537 L44.3450564,47.5575339 C46.9345965,44.7071394 48.1857593,40.8704492 47.7776688,37.0315672 L46.8401143,26.3514462 L45.0416812,25.505789 C44.7200782,25.354557 44.50822,25.0367506 44.4911405,24.6802229 L44.1103044,16.7467527 C43.015764,16.2510478 41.8092985,16.1841989 40.6631563,16.5633748 L34.5050948,18.603911 C33.4959518,18.9385209 32.3843319,18.9385209 31.3748256,18.603911 L25.2167641,16.5633748 C24.0688049,16.183103 22.860159,16.2506825 21.7641651,16.7493098 L21.3110137,24.68899 C21.2910271,25.0400382 21.0817126,25.3523652 20.7659239,25.5032319 L18.9976525,26.3474279 Z M35.5898235,55.4113699 L30.2475798,55.4113699 C27.5682816,55.4113699 24.9954576,54.2701893 23.1886665,52.2811596 L20.0776571,48.8561566 C17.1185461,45.5980932 15.6889572,41.2138262 16.1551907,36.8266369 L17.137806,25.6296239 C17.1676042,25.2895345 17.374375,24.9910887 17.6807154,24.8446056 L19.4311806,24.0091766 L19.8832418,16.0903182 C19.9017748,15.7666671 20.0812911,15.4737007 20.3603771,15.3118752 C22.0232644,14.3467666 24.0121155,14.1367221 25.8167263,14.7347095 L31.9744244,16.7752457 C32.5972804,16.9812719 33.2833668,16.9812719 33.905496,16.7752457 L40.0631941,14.7347095 C41.8681682,14.1359915 43.8566559,14.3467666 45.5191799,15.3118752 C45.801173,15.4755272 45.9814161,15.7721465 45.997042,16.0990852 L46.3764245,24.0077154 L48.1516004,24.8420485 C48.460848,24.9874358 48.6697991,25.287708 48.6995974,25.6296239 L49.6840296,36.8445363 C50.1488095,41.2138262 48.7188572,45.5980932 45.7597462,48.8561566 L42.6487368,52.2811596 C40.8419458,54.2701893 38.2691218,55.4113699 35.5898235,55.4113699 L35.5898235,55.4113699 Z" id="Fill-27" fill="#C0C0C8"></path>
                        <g id="Group-33" transform="translate(0.000000, 54.162975)">
                            <mask id="mask-4" fill="white">
                                <use xlink:href="#path-3"></use>
                            </mask>
                            <g id="Clip-32"></g>
                            <path d="M64.8797895,18.6300295 L0.957831851,18.6300295 C0.636955637,18.6300295 0.337519623,18.4685693 0.159820338,18.2000777 C-0.0175155532,17.9315861 -0.0494941566,17.5914967 0.0747863248,17.2941468 C1.84051398,13.0713401 5.28838886,9.71537775 9.54190651,8.07593515 L15.3038694,4.79339701 L22.004477,0.337897594 C22.4456364,0.0442006583 23.0394209,0.166209087 23.331589,0.609676849 C23.6233938,1.05314461 23.5023839,1.65076673 23.0612245,1.94373308 L16.332999,6.41749723 C16.3148294,6.42991725 16.2959329,6.44124139 16.2766731,6.45220023 L10.4231351,9.78734081 C10.3802547,9.81145026 10.3355573,9.83263735 10.2894064,9.8501715 C6.95418338,11.1184747 4.17240828,13.5758121 2.47935927,16.7045612 L63.3582621,16.7045612 C61.6648497,13.5758121 58.883438,11.1184747 55.5478516,9.8501715 C55.5017007,9.83263735 55.4573667,9.81145026 55.4144863,9.78734081 L49.5605849,6.45220023 C49.5416885,6.44124139 49.522792,6.42991725 49.504259,6.41749723 L42.7763969,1.94373308 C42.3352375,1.65076673 42.2142276,1.05314461 42.5060323,0.609676849 C42.7982005,0.165843792 43.3916216,0.044565953 43.8331444,0.337897594 L50.533752,4.79339701 L56.2957149,8.07593515 C60.5492325,9.71537775 63.9971074,13.0713401 65.762835,17.2941468 C65.8867521,17.5914967 65.8551369,17.9315861 65.6774376,18.2000777 C65.5001018,18.4685693 65.2006657,18.6300295 64.8797895,18.6300295" id="Fill-31" fill="#C0C0C8" mask="url(#mask-4)"></path>
                        </g>
                        <path d="M32.918738,65.3337236 C31.4811544,65.3337236 30.0439342,65.071442 28.6757588,64.5465136 L25.4088537,63.2928222 C23.1158425,62.4131925 21.5750552,60.1644384 21.5750552,57.6968727 L21.5750552,50.6075985 C21.5750552,50.0760947 22.0038592,49.645047 22.5325964,49.645047 C23.0616969,49.645047 23.4905009,50.0760947 23.4905009,50.6075985 L23.4905009,57.6968727 C23.4905009,59.3710183 24.5359832,60.8968542 26.092033,61.4941111 L29.358938,62.7478025 C31.654493,63.6281627 34.182983,63.6281627 36.4789014,62.7478025 L39.745443,61.4941111 C41.3014928,60.8968542 42.3469751,59.3710183 42.3469751,57.6968727 L42.3469751,50.6075985 C42.3469751,50.0760947 42.7757791,49.645047 43.3048796,49.645047 C43.8339802,49.645047 44.2627842,50.0760947 44.2627842,50.6075985 L44.2627842,57.6968727 C44.2627842,60.1644384 42.7219969,62.4131925 40.4286223,63.2928222 L37.1617173,64.5465136 C35.7939052,65.0710767 34.3563216,65.3337236 32.918738,65.3337236" id="Fill-29" fill="#C0C0C8"></path>
                    </g>
                </g>
            </g>
        </g>
    </g>
</svg>