<svg width="310" height="85" viewBox="0 0 310 85" fill="none" xmlns="http://www.w3.org/2000/svg">
<path d="M296.335 36.1396V37.146H298.489V43.1221H299.725V37.146H301.897V36.1396H299.725H296.335Z" fill="#26354C"/>
<path d="M308.385 36.1396L306.407 41.4537L304.421 36.1396H303.865H302.806V43.1221H304.05V40.8711L303.927 37.7727L305.957 43.1221H306.849L308.879 37.7639L308.764 40.8711V43.1221H310V36.1396H308.385Z" fill="#26354C"/>
<path d="M89.5724 51.6583C87.3631 50.748 85.0598 50.0849 82.7047 49.681C81.0275 49.4514 79.4044 48.9253 77.9114 48.1273C77.4861 47.8869 77.1321 47.5381 76.8856 47.1163C76.639 46.6945 76.5087 46.2148 76.5079 45.7263C76.4984 45.2354 76.6065 44.7493 76.823 44.3086C77.0395 43.8679 77.3582 43.4854 77.7526 43.1928C78.7228 42.5 79.8985 42.1547 81.0893 42.213C82.4472 42.1045 83.7953 42.5181 84.8586 43.3694C85.28 43.7853 85.6081 44.2862 85.8212 44.8386C86.0343 45.3911 86.1274 45.9825 86.0944 46.5737H95.6191C95.6515 44.5226 95.0334 42.514 93.8536 40.8359C92.5702 39.0794 90.8169 37.7208 88.7956 36.9166C86.3556 35.9274 83.7393 35.4468 81.107 35.5042C78.5935 35.4496 76.0985 35.9467 73.7979 36.9607C71.8764 37.7991 70.2193 39.1449 69.0046 40.8536C67.926 42.4094 67.3471 44.2569 67.3451 46.15C67.3451 51.4052 71.3939 54.8979 79.4915 56.6281C80.9391 56.9159 82.3618 57.3173 83.7464 57.8286C84.5326 58.0892 85.2484 58.5271 85.8384 59.1085C86.231 59.5707 86.4385 60.1619 86.421 60.7681C86.4328 61.2645 86.3184 61.7558 86.0883 62.1959C85.8583 62.6359 85.5201 63.0103 85.1057 63.2839C83.9852 63.976 82.6773 64.303 81.3629 64.2196C79.8375 64.2849 78.3302 63.8679 77.0552 63.0279C76.49 62.6044 76.0347 62.0515 75.7275 61.4156C75.4203 60.7797 75.2701 60.0793 75.2897 59.3734H66.2682C66.2917 61.3558 66.9064 63.2861 68.0337 64.917C69.3309 66.791 71.1002 68.2892 73.1624 69.26C75.6418 70.4379 78.3628 71.0184 81.107 70.9548C83.7283 71.0081 86.3345 70.5463 88.7779 69.5954C90.7861 68.8329 92.5475 67.5355 93.8713 65.8438C95.0095 64.2662 95.6322 62.3754 95.6543 60.4302C95.6765 58.485 95.0969 56.5805 93.9949 54.9774C92.8261 53.5139 91.3042 52.3717 89.5724 51.6583Z" fill="#26354C"/>
<path d="M123.266 37.5612C120.753 36.1308 117.894 35.4193 115.004 35.5045C111.982 35.4297 109.001 36.2133 106.406 37.7643C103.978 39.2737 102.043 41.4577 100.836 44.0493C99.5071 46.9087 98.846 50.033 98.9028 53.1856V54.3949C98.8682 57.3186 99.5823 60.2024 100.977 62.7721C102.35 65.2999 104.413 67.3849 106.927 68.7835C109.721 70.3129 112.87 71.0773 116.054 70.9992C118.861 71.0666 121.642 70.4613 124.167 69.2337C126.268 68.2448 128.089 66.7457 129.463 64.873L124.882 59.5766C123.931 60.7889 122.697 61.7497 121.289 62.3749C119.849 63.0085 118.29 63.3275 116.716 63.3106C114.732 63.3913 112.79 62.7198 111.279 61.4304C109.828 60.1015 108.891 58.3048 108.631 56.3546H130.266V52.3029C130.341 49.2401 129.738 46.1988 128.501 43.3961C127.391 40.9637 125.564 38.928 123.266 37.5612ZM120.856 49.9195H108.684C108.872 48.1077 109.566 46.3855 110.687 44.9497C111.218 44.354 111.876 43.8859 112.613 43.5802C113.349 43.2745 114.146 43.1391 114.942 43.1842C115.751 43.1191 116.564 43.2298 117.326 43.5087C118.088 43.7875 118.78 44.2279 119.356 44.7996C120.398 46.029 120.946 47.6024 120.892 49.2133L120.856 49.9195Z" fill="#26354C"/>
<path d="M150.79 35.5043C149.23 35.4794 147.696 35.9088 146.376 36.7401C145.022 37.6243 143.916 38.8397 143.163 40.2711L142.881 36.131H133.894V70.3547H143.454V48.2863C144.49 46.0324 146.715 44.9054 150.128 44.9054C151.259 44.9141 152.389 44.9997 153.509 45.1614L153.641 35.9192C153.205 35.7943 152.759 35.7057 152.308 35.6544C151.806 35.5686 151.299 35.5185 150.79 35.5043Z" fill="#26354C"/>
<path d="M179.673 37.5611C177.16 36.1315 174.301 35.4201 171.411 35.5043C168.386 35.4308 165.403 36.2142 162.804 37.7641C160.379 39.2741 158.447 41.4582 157.243 44.0492C155.914 46.9086 155.253 50.0328 155.31 53.1855V54.3948C155.275 57.3184 155.989 60.2023 157.384 62.7719C158.757 65.2997 160.82 67.3847 163.334 68.7834C166.125 70.3117 169.271 71.076 172.453 70.999C175.262 71.0676 178.046 70.4622 180.574 69.2336C182.675 68.2446 184.496 66.7455 185.87 64.8729L181.289 59.5765C180.338 60.7888 179.104 61.7496 177.696 62.3748C176.256 63.0084 174.697 63.3274 173.123 63.3105C171.139 63.3912 169.197 62.7197 167.686 61.4302C166.235 60.1013 165.298 58.3047 165.038 56.3545H186.673V52.3027C186.748 49.24 186.145 46.1986 184.908 43.396C183.798 40.9636 181.971 38.9279 179.673 37.5611ZM177.263 49.9193H165.09C165.292 48.1141 165.995 46.4015 167.121 44.976C167.651 44.3804 168.309 43.9122 169.046 43.6065C169.783 43.3008 170.579 43.1655 171.375 43.2106C172.184 43.1455 172.997 43.2562 173.759 43.535C174.521 43.8139 175.214 44.2543 175.789 44.826C176.828 46.0575 177.375 47.6294 177.325 49.2397L177.263 49.9193Z" fill="#26354C"/>
<path d="M209.218 35.5041C207.309 35.4768 205.418 35.8779 203.684 36.6781C202.002 37.4675 200.527 38.637 199.376 40.0943L199.058 36.1397H190.072V70.3633H199.632V46.2646C200.16 45.3301 200.928 44.5532 201.856 44.0136C202.847 43.4694 203.966 43.1983 205.096 43.228C206.538 43.1062 207.974 43.5281 209.121 44.4109C209.986 45.2053 210.419 46.6118 210.419 48.6304V70.3633H219.97V48.6657C219.97 44.0048 219.031 40.6475 217.154 38.5937C215.277 36.5399 212.631 35.51 209.218 35.5041Z" fill="#26354C"/>
<path d="M230.677 22.3779C229.266 22.3165 227.888 22.811 226.837 23.755C226.369 24.2159 225.997 24.7654 225.742 25.3716C225.488 25.9779 225.358 26.6286 225.358 27.2859C225.358 27.9432 225.488 28.5939 225.742 29.2001C225.997 29.8064 226.369 30.356 226.837 30.8169C227.926 31.7075 229.289 32.1941 230.695 32.1941C232.101 32.1941 233.464 31.7075 234.553 30.8169C235.021 30.356 235.393 29.8064 235.648 29.2001C235.902 28.5939 236.032 27.9432 236.032 27.2859C236.032 26.6286 235.902 25.9779 235.648 25.3716C235.393 24.7654 235.021 24.2159 234.553 23.755C233.491 22.8063 232.1 22.3119 230.677 22.3779Z" fill="#26354C"/>
<path d="M235.479 36.1396H225.893V70.3721H235.479V36.1396Z" fill="#26354C"/>
<path d="M253.628 62.4099C253.32 62.0244 253.092 61.5819 252.955 61.1077C252.819 60.6335 252.778 60.1371 252.834 59.6469V43.0957H258.598V36.1485H252.834V27.6743H243.283V36.1485H238.445V43.1045H243.283V60.7592C243.283 67.5915 246.637 71.0077 253.346 71.0077C255.26 71.0401 257.165 70.7415 258.978 70.125V62.9395C258.104 63.0994 257.217 63.1733 256.33 63.1602C255.367 63.2534 254.405 62.986 253.628 62.4099Z" fill="#26354C"/>
<path d="M275.176 56.8926L269.068 36.1484H258.819L270.78 70.575L269.836 73.0732C269.501 74.1306 268.82 75.0447 267.903 75.6684C266.721 76.2752 265.397 76.5497 264.071 76.4628C263.445 76.4628 262.968 76.4628 262.65 76.4628V83.6748C263.533 83.9132 264.266 84.072 264.787 84.1515C265.45 84.2469 266.12 84.2883 266.79 84.2751C268.766 84.3522 270.726 83.8883 272.457 82.9333C273.84 82.1521 275.013 81.0463 275.874 79.7113C276.67 78.407 277.327 77.0223 277.833 75.5801L291.586 36.1484H281.347L275.176 56.8926Z" fill="#26354C"/>
<path d="M34.2683 46.2822C33.9682 45.523 33.6415 45.2141 33.1207 46.088C32.0967 47.8535 30.9846 49.4777 30.1195 51.2785C29.8422 51.8075 29.7072 52.3996 29.728 52.9966C29.7488 53.5935 29.9247 54.1748 30.2381 54.6833C30.5516 55.1918 30.9919 55.6099 31.5159 55.8967C32.0399 56.1834 32.6294 56.3289 33.2266 56.3189C35.7248 56.3189 37.2873 53.9355 36.378 51.3756C35.7601 49.6454 34.9568 47.9858 34.2683 46.2822Z" fill="#40D1F2"/>
<path d="M23.1635 46.0174C22.8192 45.4436 22.4308 45.3465 22.1483 46.0615C21.3539 48.0565 20.4358 50.0339 19.8267 52.0906C19.6795 52.598 19.6558 53.1334 19.7577 53.6518C19.8596 54.1702 20.0841 54.6567 20.4125 55.0707C20.7409 55.4846 21.1636 55.8139 21.6452 56.031C22.1269 56.2482 22.6535 56.3469 23.1811 56.3189C23.765 56.316 24.3386 56.1643 24.8475 55.8781C25.3565 55.5918 25.784 55.1805 26.0897 54.6831C26.3954 54.1856 26.5693 53.6184 26.5948 53.035C26.6202 52.4516 26.4966 51.8713 26.2354 51.3491C25.3703 49.4954 24.2051 47.7917 23.1635 46.0174Z" fill="#40D1F2"/>
<path d="M28.204 15.9076C30.5874 15.9076 32.1233 14.0009 31.0376 12.3148C30.365 11.3814 29.6275 10.4965 28.8307 9.66663C28.766 9.55682 28.6738 9.46576 28.5631 9.40253C28.4524 9.33929 28.3271 9.30603 28.1996 9.30603C28.0721 9.30603 27.9468 9.33929 27.8361 9.40253C27.7255 9.46576 27.6332 9.55682 27.5685 9.66663C26.7616 10.5022 26.0069 11.3866 25.3086 12.3148C24.1699 14.0273 25.7412 15.9341 28.204 15.9076Z" fill="#28AEAD"/>
<path d="M19.5355 19.4648C21.195 17.77 20.9566 15.3425 18.9969 14.9188C17.8576 14.7384 16.7075 14.6351 15.5543 14.6098C14.9717 14.5657 14.6009 14.7952 14.6715 15.4925C14.6872 16.6504 14.7756 17.8061 14.9363 18.9529C15.3424 20.992 17.8141 21.2303 19.5355 19.4648Z" fill="#26354C"/>
<path d="M12.3236 25.2822C11.3921 25.9572 10.5074 26.6945 9.67542 27.489C9.56561 27.5538 9.47455 27.6461 9.41131 27.7567C9.34808 27.8674 9.31482 27.9927 9.31482 28.1202C9.31482 28.2477 9.34808 28.3729 9.41131 28.4836C9.47455 28.5943 9.56561 28.6866 9.67542 28.7513C10.5068 29.56 11.3916 30.312 12.3236 31.0023C14.0891 32.1498 15.9958 30.5786 15.9693 28.1158C15.9428 25.653 14.0096 24.1964 12.3236 25.2822Z" fill="#F45F47"/>
<path d="M15.4837 41.6741C16.6415 41.6585 17.7973 41.5701 18.944 41.4093C20.992 40.9768 21.2303 38.5051 19.4737 36.7838C17.717 35.0624 15.3513 35.3626 14.9276 37.3223C14.7476 38.4586 14.6443 39.6058 14.6186 40.7561C14.5745 41.3475 14.804 41.7183 15.4837 41.6741Z" fill="#5FD69A"/>
<path d="M28.1156 40.4032C25.741 40.4032 24.205 42.3099 25.2819 43.996C25.9603 44.9274 26.7005 45.8121 27.4976 46.6442C27.8772 47.0944 28.3097 47.2003 28.7511 46.6442C29.5605 45.8109 30.3153 44.9263 31.011 43.996C32.1585 42.3276 30.5872 40.3767 28.1156 40.4032Z" fill="#28AEAD"/>
<path d="M37.3579 41.3919C38.4942 41.5723 39.6415 41.6755 40.7918 41.7008C41.3744 41.7449 41.7539 41.5154 41.6745 40.8181C41.6662 39.6602 41.5806 38.5042 41.4185 37.3578C40.9771 35.3098 38.5143 35.0715 36.7929 36.8282C35.0716 38.5848 35.3718 40.9682 37.3579 41.3919Z" fill="#26354C"/>
<path d="M43.996 31.0285C44.9309 30.3578 45.8159 29.6203 46.6442 28.8217C47.0856 28.4421 47.1915 28.0096 46.6442 27.5682C45.8134 26.7562 44.9286 26.0012 43.996 25.3084C42.2306 24.1608 40.3239 25.7321 40.3503 28.2038C40.3768 30.6754 42.3188 32.1143 43.996 31.0285Z" fill="#F45F47"/>
<path d="M41.392 18.9881C41.5794 17.8525 41.6857 16.705 41.7099 15.5543C41.7099 14.9717 41.5245 14.5921 40.8272 14.6716C39.6693 14.6799 38.5133 14.7654 37.3668 14.9276C35.3101 15.3601 35.0717 17.8318 36.8372 19.5531C38.6027 21.2744 40.9683 20.9478 41.392 18.9881Z" fill="#5FD69A"/>
<path d="M50.387 38.7965C48.7363 38.0109 46.9885 37.4106 45.3025 36.6868C44.5433 36.369 44.102 36.3778 44.3491 37.3665C44.8435 39.2997 45.2319 41.277 45.8939 43.1572C46.0715 43.7281 46.3947 44.2429 46.8317 44.6509C47.2687 45.0589 47.8044 45.3461 48.3861 45.4842C48.9678 45.6222 49.5753 45.6065 50.1491 45.4384C50.7228 45.2703 51.2429 44.9556 51.6581 44.5255C53.4147 42.7159 52.841 39.9353 50.387 38.7965Z" fill="#40D1F2"/>
<path d="M43.2016 45.92C41.2773 45.2227 39.247 44.8343 37.2609 44.3223C36.6076 44.1634 36.2633 44.3223 36.5723 45.0638C37.455 47.0499 38.1612 49.089 39.2205 50.9692C39.4745 51.4321 39.8356 51.8275 40.2735 52.1224C40.7114 52.4174 41.2136 52.6033 41.738 52.6646C42.2624 52.726 42.7939 52.661 43.2881 52.4751C43.7822 52.2892 44.2248 51.9878 44.5788 51.596C44.9898 51.1796 45.2875 50.665 45.4438 50.1012C45.6001 49.5373 45.6097 48.9429 45.4717 48.3743C45.3338 47.8057 45.0529 47.2818 44.6556 46.8522C44.2583 46.4227 43.7578 46.1018 43.2016 45.92Z" fill="#40D1F2"/>
<path d="M46.2911 22.0247C45.5231 22.3248 45.223 22.6514 46.0969 23.1722C47.8183 24.1962 49.4866 25.3085 51.2786 26.1736C51.8076 26.4509 52.3997 26.5857 52.9967 26.5649C53.5936 26.5441 54.1749 26.3684 54.6834 26.0549C55.1918 25.7415 55.61 25.3011 55.8968 24.7771C56.1836 24.2531 56.329 23.6636 56.319 23.0663C56.319 20.5682 53.9444 19.0057 51.3757 19.915C49.6544 20.5594 47.9948 21.3627 46.2911 22.0247Z" fill="#40D1F2"/>
<path d="M51.3579 30.0841C49.5042 30.9668 47.827 32.1143 46.0615 33.156C45.4877 33.5002 45.3818 33.8886 46.0615 34.1711C48.0653 34.9656 50.0338 35.8836 52.0994 36.4927C52.6063 36.6404 53.1413 36.6642 53.6595 36.5624C54.1776 36.4605 54.6638 36.2359 55.0771 35.9073C55.4904 35.5787 55.819 35.1558 56.035 34.674C56.2511 34.1922 56.3484 33.6656 56.3189 33.1383C56.3177 32.5547 56.1674 31.9811 55.8822 31.4718C55.5971 30.9626 55.1865 30.5347 54.6895 30.2288C54.1925 29.9228 53.6256 29.7489 53.0426 29.7236C52.4595 29.6982 51.8795 29.8223 51.3579 30.0841Z" fill="#40D1F2"/>
<path d="M37.3579 11.9617C39.2911 11.4762 41.2684 11.079 43.1487 10.4258C43.7188 10.2471 44.2327 9.92318 44.6397 9.48573C45.0467 9.04828 45.3329 8.51243 45.47 7.93087C45.6072 7.3493 45.5905 6.74201 45.4219 6.16879C45.2532 5.59558 44.9383 5.07616 44.508 4.66156C42.7425 2.89609 39.9531 3.4787 38.7879 5.9327C38.0023 7.58341 37.402 9.33124 36.6781 11.0173C36.3427 11.7764 36.3516 12.2177 37.3579 11.9617Z" fill="#40D1F2"/>
<path d="M45.0728 19.7474C47.0502 18.8647 49.0982 18.1497 50.9784 17.0992C51.4422 16.8458 51.8384 16.4848 52.1336 16.0465C52.4289 15.6081 52.6147 15.1053 52.6752 14.5802C52.7358 14.0552 52.6693 13.5232 52.4816 13.0292C52.2938 12.5351 51.9902 12.0933 51.5963 11.741C51.1826 11.3293 50.6705 11.0302 50.1087 10.872C49.5469 10.7138 48.9541 10.7018 48.3863 10.8371C47.8186 10.9724 47.2949 11.2505 46.8648 11.6451C46.4348 12.0397 46.1126 12.5376 45.9291 13.0916C45.2317 15.0072 44.8434 17.0463 44.3314 19.0324C44.1637 19.7121 44.3667 20.0564 45.0728 19.7474Z" fill="#40D1F2"/>
<path d="M22.0513 10.0283C22.3603 10.7962 22.678 11.0964 23.1988 10.2225C24.2228 8.45702 25.3439 6.83279 26.209 5.03201C26.4842 4.50326 26.6174 3.91211 26.5955 3.31643C26.5736 2.72076 26.3975 2.14097 26.0843 1.6338C25.7711 1.12664 25.3316 0.709482 24.8088 0.423166C24.286 0.136851 23.6977 -0.00882907 23.1017 0.000413976C20.6036 0.000413976 19.0412 2.375 19.9504 4.94376C20.586 6.66509 21.3716 8.32458 22.0513 10.0283Z" fill="#40D1F2"/>
<path d="M33.1651 10.2931C33.5093 10.8669 33.8889 10.9728 34.1802 10.2931C34.9747 8.28934 35.8927 6.32082 36.493 4.25522C36.6425 3.74889 36.668 3.21405 36.5675 2.69578C36.4669 2.17751 36.2431 1.69102 35.9151 1.27734C35.5871 0.863658 35.1645 0.534908 34.6828 0.318824C34.2011 0.10274 33.6745 0.00565586 33.1474 0.03575C32.5638 0.0369479 31.9902 0.187265 31.481 0.47243C30.9717 0.757595 30.5439 1.16816 30.2379 1.66515C29.9319 2.16214 29.758 2.72904 29.7326 3.31211C29.7073 3.89519 29.8314 4.47509 30.0932 4.99674C30.9583 6.81517 32.1234 8.51885 33.1651 10.2931Z" fill="#40D1F2"/>
<path d="M5.94145 17.5491C7.59216 18.3347 9.33999 18.935 11.026 19.6589C11.7852 19.9766 12.2265 19.9678 11.9705 18.9791C11.485 17.0459 11.0878 15.0686 10.4346 13.1884C10.2559 12.6182 9.93193 12.1044 9.49448 11.6973C9.05703 11.2903 8.52118 11.0042 7.93962 10.867C7.35805 10.7299 6.75082 10.7464 6.1776 10.9151C5.60438 11.0837 5.08491 11.3987 4.67031 11.829C2.93132 13.5945 3.48745 16.3751 5.94145 17.5491Z" fill="#40D1F2"/>
<path d="M13.1268 10.3905C15.0423 11.0878 17.0814 11.4762 19.0676 11.9882C19.7208 12.1559 20.0563 11.9882 19.7562 11.2467C18.8734 9.26053 18.1584 7.22141 17.1079 5.34119C16.8546 4.87736 16.4934 4.48117 16.0551 4.18589C15.6167 3.8906 15.1139 3.70491 14.5888 3.64436C14.0638 3.58381 13.5319 3.65019 13.0379 3.83794C12.5438 4.0257 12.102 4.32934 11.7497 4.72332C11.3384 5.13883 11.0403 5.65269 10.8839 6.216C10.7274 6.77931 10.7178 7.37328 10.8558 7.94139C10.9938 8.50949 11.275 9.0328 11.6725 9.46149C12.0701 9.89019 12.5707 10.21 13.1268 10.3905Z" fill="#40D1F2"/>
<path d="M10.0372 34.2684C10.7963 33.9595 11.0965 33.6329 10.2226 33.1121C8.51006 32.0969 6.8417 30.9758 5.04092 30.1107C4.51187 29.8334 3.91977 29.6986 3.32281 29.7194C2.72585 29.7402 2.14458 29.9159 1.63611 30.2294C1.12764 30.5428 0.709441 30.9832 0.422676 31.5072C0.135911 32.0312 -0.00957982 32.6207 0.000489303 33.218C0.000489303 35.7161 2.3839 37.2786 4.94383 36.3694C6.67399 35.7603 8.3335 34.9481 10.0372 34.2684Z" fill="#40D1F2"/>
<path d="M4.97022 26.2263C6.81513 25.3436 8.50116 24.196 10.2666 23.1544C10.8492 22.8101 10.9463 22.4305 10.2666 22.1392C8.26282 21.3448 6.2943 20.4267 4.23753 19.8176C3.73012 19.6704 3.19486 19.6467 2.67642 19.7486C2.15799 19.8505 1.67147 20.075 1.25755 20.4034C0.843631 20.7318 0.514291 21.1545 0.297125 21.6361C0.0799596 22.1178 -0.0187287 22.6444 0.00925607 23.172C0.0104539 23.7556 0.160771 24.3293 0.445936 24.8385C0.731101 25.3477 1.14164 25.7756 1.63863 26.0816C2.13562 26.3876 2.70255 26.5615 3.28562 26.5868C3.86869 26.6121 4.44857 26.488 4.97022 26.2263Z" fill="#40D1F2"/>
<path d="M18.9882 44.3491C17.0461 44.8346 15.0777 45.2319 13.1975 45.8851C12.6266 46.0627 12.1118 46.3858 11.7038 46.8228C11.2958 47.2598 11.0086 47.7956 10.8705 48.3773C10.7325 48.959 10.7482 49.5666 10.9163 50.1403C11.0844 50.714 11.3991 51.2341 11.8292 51.6493C13.5947 53.4148 16.3841 52.8322 17.5581 50.3782C18.3438 48.7275 18.944 46.9796 19.659 45.2936C19.9857 44.5345 19.9768 44.0931 18.9882 44.3491Z" fill="#40D1F2"/>
<path d="M11.2553 36.5633C9.26917 37.446 7.23004 38.161 5.34099 39.2115C4.87873 39.4663 4.48412 39.828 4.19005 40.2663C3.89598 40.7047 3.71099 41.207 3.65052 41.7313C3.59005 42.2557 3.65585 42.7869 3.84243 43.2806C4.02901 43.7744 4.33099 44.2164 4.72312 44.5697C5.13774 44.9811 5.65041 45.28 6.21273 45.4381C6.77506 45.5961 7.36842 45.6081 7.93666 45.4729C8.5049 45.3376 9.02928 45.0597 9.46016 44.6653C9.89105 44.271 10.2142 43.7732 10.3991 43.2191C11.0965 41.3036 11.476 39.2645 11.988 37.2784C12.1557 36.5987 11.9615 36.2543 11.2553 36.5633Z" fill="#40D1F2"/>
</svg>
