<?xml version="1.0" encoding="iso-8859-1"?>
<svg width="68" height="36" xmlns="http://www.w3.org/2000/svg" xmlns:xlink="http://www.w3.org/1999/xlink" x="0px" y="0px" viewBox="0 0 68 36" fill="none"><path d="M39.7895 25.6459C38.7546 24.4253 37.297 23.632 35.7026 23.4216C32.7791 23.0242 30.1735 23.8783 28.0217 25.8491C25.5682 28.0985 24.49 30.8617 25.2295 34.1821C25.2976 34.4878 25.4837 34.755 25.7479 34.9266C25.9783 35.043 26.5703 35.1549 26.7247 34.1296C26.7523 32.9193 26.7615 32.5653 26.8007 31.46C26.8072 30.2004 27.2616 28.9834 28.0839 28.0231C30.1389 25.7075 32.6109 24.4195 35.8224 25.164C36.263 25.2785 36.6861 25.4513 37.0802 25.6778C38.8519 26.637 39.702 28.1898 39.9669 30.1241C40.165 31.5514 40.4276 32.9718 40.2825 34.4265C40.2478 34.6551 40.3167 34.8873 40.4709 35.0608C40.6251 35.2344 40.8487 35.3315 41.0819 35.3262C41.5865 35.3102 41.7731 34.9197 41.8168 34.5406C41.9485 33.7659 42.0094 32.9809 41.9988 32.1953C41.8952 29.8158 41.4114 27.5321 39.7895 25.6459Z" fill="#EBC627"></path><path d="M23.3675 21.7939C21.8641 20.535 20.3561 19.2941 18.8435 18.0709C15.6717 15.4997 12.4992 12.9332 9.32596 10.3717C8.96978 10.0842 8.61591 9.78938 8.24353 9.52381C7.87116 9.25823 7.45021 9.25823 7.16573 9.53843C6.88124 9.81862 6.97145 10.2182 7.37157 10.5983C7.45484 10.6787 7.54273 10.7518 7.63293 10.8249C10.3413 13.0494 13.0358 15.2885 15.7604 17.4886C17.8605 19.182 19.9953 20.829 22.1231 22.4834C22.5672 22.8294 22.965 23.285 23.5733 23.3264C23.9203 23.1339 24.1307 22.8708 23.9087 22.4712C23.7691 22.2125 23.5856 21.9829 23.3675 21.7939Z" fill="#EBC627"></path><path d="M67.6699 34.3004C67.4053 34.1838 67.12 34.1128 66.8279 34.0908C64.8318 33.9912 62.8357 33.9028 60.8396 33.8255C56.6705 33.665 52.5014 33.5096 48.3324 33.3595C47.8643 33.3439 47.3938 33.3194 46.9258 33.3283C46.4191 33.3395 46.0982 33.5713 46.0138 33.937C45.9293 34.3026 46.2382 34.5545 46.7979 34.6058C46.9137 34.6192 47.0392 34.6259 47.1477 34.6326C50.7257 34.7886 54.3013 34.967 57.8793 35.0963C60.637 35.1944 63.3947 35.239 66.1547 35.2947C66.7314 35.3059 67.3297 35.424 67.8702 35.1186C68.0559 34.7886 68.0849 34.4765 67.6699 34.3004Z" fill="#EBC627"></path><path d="M59.6014 12.7719C59.8102 12.5782 59.9461 12.3178 59.986 12.0347C60.1981 10.3677 57.9255 12.1662 57.9255 12.1662C54.4547 15.0728 50.8115 17.7471 47.1403 20.3837C46.0774 21.1468 44.9656 21.8418 43.898 22.6001C43.5635 22.8408 43.2752 23.1407 43.0472 23.4853C42.9635 23.703 42.9923 23.9483 43.1241 24.1403C43.2868 24.2911 43.5107 24.3555 43.7278 24.3141C44.0081 24.2138 44.2685 24.0644 44.497 23.8727C48.1597 21.2227 51.8193 18.5673 55.4757 15.9063C56.8719 14.885 58.2425 13.8355 59.6014 12.7719Z" fill="#EBC627"></path><path d="M18.977 32.335C14.4709 32.7487 9.95777 32.8606 5.43533 32.9215C4.12786 32.9385 2.8204 32.8679 1.51293 32.8801C1.10074 32.8867 0.692897 32.9691 0.308189 33.1234C0.117993 33.2609 0.00321077 33.4857 0 33.7269C0.0487056 33.9533 0.197779 34.1421 0.401579 34.2355C0.688091 34.3165 0.986136 34.3437 1.28179 34.3158C5.79955 34.2355 10.3173 34.1577 14.8351 34.0579C16.5581 34.0189 18.2835 33.9411 20.0066 33.8437C20.2879 33.8031 20.547 33.662 20.7397 33.4447C21.8651 32.1549 18.977 32.335 18.977 32.335Z" fill="#EBC627"></path><path d="M34.0721 20.311C34.4792 20.4027 34.7147 20.0697 34.8019 19.7151C34.8559 19.5173 34.8929 19.3165 34.9124 19.1143C35.0025 17.5509 35.0112 14.6701 34.9909 13.1066C34.9444 9.76498 34.9531 7.7407 34.8542 4.39907C34.8281 3.51601 34.7757 2.62812 34.8019 1.74507C34.8484 0.237109 33.1184 -0.274389 33.0021 1.23357C33.0021 1.23357 32.9643 15.9995 33.2085 18.7958C33.3597 20.3158 33.7668 20.2435 34.0721 20.311Z" fill="#EBC627"></path><path d="M47.3723 29.2831C49.5198 28.8323 50.3333 28.5821 52.4087 28.1313C53.7607 27.7706 53.9635 27.4122 53.986 27.2296C54.0717 26.5331 53.7607 26.2355 53.1252 26.3505C52.9337 26.3865 52.7489 26.4452 52.5619 26.497C51.5028 26.79 50.4482 27.1011 49.3846 27.3784C48.3863 27.6376 47.3723 27.8427 46.3808 28.1245C46.1662 28.2329 46.0223 28.444 46 28.6835C46.0458 28.928 46.2058 29.1358 46.4304 29.2426C46.7354 29.3384 47.0602 29.3523 47.3723 29.2831Z" fill="#EBC627"></path><path d="M38.2555 20.2003C38.5284 20.4394 38.8486 20.3211 39.0527 19.9914C39.88 18.655 40.6943 17.3086 41.5173 15.9646C41.9471 15.2649 42.4047 14.5854 42.8066 13.8707C43.3437 13.02 42.5917 12.3329 42.5917 12.3329C42.2285 12.2901 41.9471 12.4588 41.657 12.8363C40.3871 14.515 40.0304 15.5191 39.1429 16.7977C38.5972 17.5854 38.1373 18.4436 38.002 19.4654C37.985 19.7431 38.0786 20.0144 38.2555 20.2003Z" fill="#EBC627"></path><path d="M25.9517 16.5479C26.5095 17.4017 27.092 18.2413 27.7091 19.0548C27.8832 19.2473 28.1434 19.3471 28.4076 19.3228C28.6199 19.2635 28.763 18.9576 28.926 18.7512C28.968 18.609 28.9929 18.4625 29 18.3148C28.805 17.9662 28.5878 17.3851 28.2077 16.9321C27.2964 15.8172 26.5189 14.607 25.89 13.3246C25.7345 13.0234 25.5963 12.6582 25.3346 12.4827C25.0573 12.314 24.7139 12.2798 24.4065 12.3902C24.177 12.5159 24.0659 12.9143 24.0042 13.2132C23.9721 13.3768 24.1301 13.5926 24.2362 13.7658C24.7891 14.6979 25.3568 15.6347 25.9517 16.5479Z" fill="#EBC627"></path><path d="M21.4324 27.0443C21.3061 27.0121 21.1777 26.9868 21.0479 26.9687C19.7547 26.7645 16.9852 26.5767 15.6897 26.395C15.3059 26.3237 14.9118 26.3079 14.5224 26.3481C14.2808 26.4156 14.0897 26.5816 14.0074 26.7952C13.9734 27.0199 14.0579 27.2461 14.2363 27.4077C14.4808 27.5963 14.7783 27.722 15.0969 27.7711C16.5915 27.9753 19.567 28.1427 20.819 28.2978C21.128 28.3182 21.1921 28.3264 21.2584 28.3264C21.6178 28.3264 21.9062 28.2162 21.9909 27.8773C22.0501 27.5165 21.8167 27.1684 21.4324 27.0443Z" fill="#EBC627"></path></svg>